<mxfile host="65bd71144e">
    <diagram id="c0vCaD6wZMmgbpqiAVUO" name="Page-2">
        <mxGraphModel dx="1824" dy="798" grid="1" gridSize="10" guides="1" tooltips="1" connect="1" arrows="1" fold="1" page="1" pageScale="1" pageWidth="850" pageHeight="1400" background="#F4F1DE" math="0" shadow="0">
            <root>
                <mxCell id="1yGwCtyv0RRckiVesEYm-0"/>
                <mxCell id="1yGwCtyv0RRckiVesEYm-1" parent="1yGwCtyv0RRckiVesEYm-0"/>
                <mxCell id="1yGwCtyv0RRckiVesEYm-2" value="FEE_30_SMALLSECTOR_DATASET_ERASER_LAYER" style="html=1;rounded=0;sketch=0;fontColor=#393C56;strokeColor=#E07A5F;fillColor=#F2CC8F;" parent="1yGwCtyv0RRckiVesEYm-1" vertex="1">
                    <mxGeometry x="220" y="130" width="330" height="30" as="geometry"/>
                </mxCell>
                <mxCell id="1yGwCtyv0RRckiVesEYm-3" value="FEE_30_SMALLSECTOR_WRITE_LAYER" style="html=1;rounded=0;sketch=0;fontColor=#393C56;strokeColor=#E07A5F;fillColor=#F2CC8F;" parent="1yGwCtyv0RRckiVesEYm-1" vertex="1">
                    <mxGeometry x="220" y="165" width="490" height="30" as="geometry"/>
                </mxCell>
                <mxCell id="1yGwCtyv0RRckiVesEYm-4" value="FEE_30_SMALLSECTOR_READ_LAYER" style="html=1;rounded=0;sketch=0;fontColor=#393C56;strokeColor=#E07A5F;fillColor=#F2CC8F;" parent="1yGwCtyv0RRckiVesEYm-1" vertex="1">
                    <mxGeometry x="720" y="164" width="510" height="30" as="geometry"/>
                </mxCell>
                <mxCell id="1yGwCtyv0RRckiVesEYm-5" value="FEE_30_SMALLSECTOR_INSTANCE_FINDER_LAYER" style="html=1;rounded=0;sketch=0;fontColor=#393C56;strokeColor=#E07A5F;fillColor=#F2CC8F;" parent="1yGwCtyv0RRckiVesEYm-1" vertex="1">
                    <mxGeometry x="560" y="130" width="330" height="30" as="geometry"/>
                </mxCell>
                <mxCell id="1yGwCtyv0RRckiVesEYm-6" value="FEE_30_SMALLSECTOR_WRITE_INSTANCE_LAYER" style="html=1;rounded=0;sketch=0;fontColor=#393C56;strokeColor=#E07A5F;fillColor=#F2CC8F;" parent="1yGwCtyv0RRckiVesEYm-1" vertex="1">
                    <mxGeometry x="900" y="130" width="330" height="30" as="geometry"/>
                </mxCell>
                <mxCell id="1yGwCtyv0RRckiVesEYm-7" value="FEE_30_SMALLSECTOR_READ_MANAGEMENT_BYTES_LAYER" style="html=1;rounded=0;sketch=0;fontColor=#393C56;strokeColor=#E07A5F;fillColor=#F2CC8F;" parent="1yGwCtyv0RRckiVesEYm-1" vertex="1">
                    <mxGeometry x="220" y="96" width="1010" height="30" as="geometry"/>
                </mxCell>
            </root>
        </mxGraphModel>
    </diagram>
    <diagram id="rRfCxj5aWgdM7Re0TQPb" name="SmallSector_ProcessStateMachine">
        <mxGraphModel dx="2676" dy="939" grid="0" gridSize="10" guides="1" tooltips="1" connect="1" arrows="1" fold="1" page="1" pageScale="1" pageWidth="850" pageHeight="1400" background="#F4F1DE" math="0" shadow="0">
            <root>
                <mxCell id="0"/>
                <mxCell id="1" parent="0"/>
                <mxCell id="72" value="SmallSector_ProcessStateMachine" style="shape=umlFrame;whiteSpace=wrap;html=1;width=201;height=29;boundedLbl=1;verticalAlign=middle;align=left;spacingLeft=5;rounded=0;sketch=0;fontColor=#393C56;strokeColor=#E07A5F;fillColor=#F2CC8F;" parent="1" vertex="1">
                    <mxGeometry x="-32" y="199" width="1066" height="582" as="geometry"/>
                </mxCell>
                <mxCell id="4" style="edgeStyle=orthogonalEdgeStyle;rounded=0;orthogonalLoop=1;jettySize=auto;html=1;strokeColor=#E07A5F;fontColor=#393C56;entryX=1;entryY=0;entryDx=0;entryDy=0;exitX=1;exitY=1;exitDx=0;exitDy=0;labelBackgroundColor=#F4F1DE;" parent="1" source="2" target="3" edge="1">
                    <mxGeometry relative="1" as="geometry">
                        <mxPoint x="600" y="369.9999999999999" as="sourcePoint"/>
                        <mxPoint x="705" y="755" as="targetPoint"/>
                        <Array as="points"/>
                    </mxGeometry>
                </mxCell>
                <mxCell id="17" value="&lt;div&gt;&lt;font color=&quot;#3333ff&quot;&gt;/* #7 Requested job has to be started */&lt;/font&gt;&lt;/div&gt;&lt;div&gt;&amp;nbsp; {Fee_30_SmallSector_StartJob();&lt;/div&gt;&lt;div&gt;&amp;nbsp; Fee_30_SmallSector_SetFlagJobRequested(FALSE);}&lt;/div&gt;" style="edgeLabel;html=1;align=left;verticalAlign=middle;resizable=0;points=[];fontColor=#393C56;labelBackgroundColor=#F4F1DE;" parent="4" vertex="1" connectable="0">
                    <mxGeometry x="0.2615" relative="1" as="geometry">
                        <mxPoint x="-80" y="-151" as="offset"/>
                    </mxGeometry>
                </mxCell>
                <mxCell id="67" value="2" style="edgeLabel;html=1;align=center;verticalAlign=middle;resizable=0;points=[];fontColor=#393C56;labelBackgroundColor=#F4F1DE;" parent="4" vertex="1" connectable="0">
                    <mxGeometry x="-0.9843" y="1" relative="1" as="geometry">
                        <mxPoint x="3" y="10" as="offset"/>
                    </mxGeometry>
                </mxCell>
                <mxCell id="8" style="edgeStyle=orthogonalEdgeStyle;rounded=0;orthogonalLoop=1;jettySize=auto;html=1;exitX=1;exitY=0.5;exitDx=0;exitDy=0;entryX=0;entryY=0.5;entryDx=0;entryDy=0;strokeColor=#E07A5F;fontColor=#393C56;labelBackgroundColor=#F4F1DE;" parent="1" source="2" target="7" edge="1">
                    <mxGeometry relative="1" as="geometry"/>
                </mxCell>
                <mxCell id="9" value="[Fee_30_SmallSector_InternalFlags.CancelRequested == TRUE]/&lt;br&gt;{Fee_30_SmallSector_SetFlagCancelRequested(FALSE);}" style="edgeLabel;html=1;align=left;verticalAlign=middle;resizable=0;points=[];fontColor=#393C56;labelBackgroundColor=#F4F1DE;" parent="8" vertex="1" connectable="0">
                    <mxGeometry x="-0.21" y="1" relative="1" as="geometry">
                        <mxPoint x="-49" y="-24" as="offset"/>
                    </mxGeometry>
                </mxCell>
                <mxCell id="13" value="1" style="edgeLabel;html=1;align=center;verticalAlign=middle;resizable=0;points=[];fontColor=#393C56;labelBackgroundColor=#F4F1DE;" parent="8" vertex="1" connectable="0">
                    <mxGeometry x="-0.8545" y="-1" relative="1" as="geometry">
                        <mxPoint x="-14" y="4" as="offset"/>
                    </mxGeometry>
                </mxCell>
                <mxCell id="71" value="1" style="edgeLabel;html=1;align=center;verticalAlign=middle;resizable=0;points=[];fontColor=#393C56;labelBackgroundColor=#F4F1DE;" parent="8" vertex="1" connectable="0">
                    <mxGeometry x="-0.7443" y="-2" relative="1" as="geometry">
                        <mxPoint x="-14" y="-9" as="offset"/>
                    </mxGeometry>
                </mxCell>
                <mxCell id="2" value="FEE_30_SMALLSECTOR_STATE_IDLE" style="html=1;align=center;verticalAlign=top;rounded=1;absoluteArcSize=1;arcSize=10;dashed=0;fillColor=#F2CC8F;strokeColor=#E07A5F;fontColor=#393C56;" parent="1" vertex="1">
                    <mxGeometry x="250" y="300" width="420" height="30" as="geometry"/>
                </mxCell>
                <mxCell id="40" style="edgeStyle=orthogonalEdgeStyle;curved=0;rounded=1;sketch=0;orthogonalLoop=1;jettySize=auto;html=1;exitX=0;exitY=0;exitDx=0;exitDy=0;fontColor=#393C56;strokeColor=#E07A5F;fillColor=#F2CC8F;entryX=0.5;entryY=1;entryDx=0;entryDy=0;labelBackgroundColor=#F4F1DE;" parent="1" source="3" target="39" edge="1">
                    <mxGeometry relative="1" as="geometry">
                        <mxPoint x="300" y="670" as="sourcePoint"/>
                        <mxPoint x="300" y="480" as="targetPoint"/>
                        <Array as="points">
                            <mxPoint x="250" y="460"/>
                        </Array>
                    </mxGeometry>
                </mxCell>
                <mxCell id="43" value="[Fee_30_SmallSector_InternalFlags.CancelRequested == TRUE]/&lt;br&gt;{Fee_30_SmallSector_Tm_CancelTasks();}" style="edgeLabel;html=1;align=left;verticalAlign=middle;resizable=0;points=[];fontColor=#393C56;labelBackgroundColor=#F4F1DE;" parent="40" vertex="1" connectable="0">
                    <mxGeometry x="-0.2381" y="-2" relative="1" as="geometry">
                        <mxPoint x="-242" y="-6" as="offset"/>
                    </mxGeometry>
                </mxCell>
                <mxCell id="45" value="1" style="edgeLabel;html=1;align=center;verticalAlign=middle;resizable=0;points=[];fontColor=#393C56;labelBackgroundColor=#F4F1DE;" parent="40" vertex="1" connectable="0">
                    <mxGeometry x="-0.8667" relative="1" as="geometry">
                        <mxPoint x="-10" as="offset"/>
                    </mxGeometry>
                </mxCell>
                <mxCell id="3" value="FEE_30_SMALLSECTOR_STATE_BUSY&lt;br&gt;&lt;br&gt;&lt;br&gt;du:&lt;span style=&quot;font-size: 11px ; text-align: left ; background-color: rgb(244 , 241 , 222)&quot;&gt;Fee_30_SmallSector_Tm_ExecuteTask();&lt;/span&gt;" style="html=1;align=center;verticalAlign=top;rounded=1;absoluteArcSize=1;arcSize=10;dashed=0;fillColor=#F2CC8F;strokeColor=#E07A5F;fontColor=#393C56;" parent="1" vertex="1">
                    <mxGeometry x="250" y="630" width="420" height="70" as="geometry"/>
                </mxCell>
                <mxCell id="5" value="" style="ellipse;html=1;shape=startState;fillColor=#F2CC8F;strokeColor=#E07A5F;fontColor=#393C56;" parent="1" vertex="1">
                    <mxGeometry x="30" y="300" width="30" height="30" as="geometry"/>
                </mxCell>
                <mxCell id="6" value="" style="edgeStyle=orthogonalEdgeStyle;html=1;verticalAlign=bottom;endArrow=open;endSize=8;strokeColor=#E07A5F;entryX=0;entryY=0.5;entryDx=0;entryDy=0;fontColor=#393C56;labelBackgroundColor=#F4F1DE;" parent="1" source="5" target="2" edge="1">
                    <mxGeometry relative="1" as="geometry">
                        <mxPoint x="125" y="390" as="targetPoint"/>
                    </mxGeometry>
                </mxCell>
                <mxCell id="18" value="&lt;div style=&quot;text-align: left&quot;&gt;&lt;font color=&quot;#3333ff&quot;&gt;/* Request a job */&lt;/font&gt;&lt;/div&gt;&lt;div&gt;&lt;br&gt;&lt;/div&gt;" style="edgeLabel;html=1;align=center;verticalAlign=middle;resizable=0;points=[];fontColor=#393C56;labelBackgroundColor=#F4F1DE;" parent="6" vertex="1" connectable="0">
                    <mxGeometry x="-0.7091" relative="1" as="geometry">
                        <mxPoint x="32" y="-17" as="offset"/>
                    </mxGeometry>
                </mxCell>
                <mxCell id="7" value="" style="ellipse;html=1;shape=endState;fillColor=#F2CC8F;strokeColor=#E07A5F;fontColor=#393C56;" parent="1" vertex="1">
                    <mxGeometry x="820" y="300" width="30" height="30" as="geometry"/>
                </mxCell>
                <mxCell id="41" style="edgeStyle=orthogonalEdgeStyle;curved=0;rounded=1;sketch=0;orthogonalLoop=1;jettySize=auto;html=1;exitX=0;exitY=0.5;exitDx=0;exitDy=0;entryX=0;entryY=1;entryDx=0;entryDy=0;fontColor=#393C56;strokeColor=#E07A5F;fillColor=#F2CC8F;labelBackgroundColor=#F4F1DE;" parent="1" source="39" target="2" edge="1">
                    <mxGeometry relative="1" as="geometry">
                        <mxPoint x="305" y="465" as="targetPoint"/>
                        <Array as="points">
                            <mxPoint x="250" y="455"/>
                        </Array>
                    </mxGeometry>
                </mxCell>
                <mxCell id="46" value="1" style="edgeLabel;html=1;align=center;verticalAlign=middle;resizable=0;points=[];fontColor=#393C56;labelBackgroundColor=#F4F1DE;" parent="41" vertex="1" connectable="0">
                    <mxGeometry x="-0.3727" y="-2" relative="1" as="geometry">
                        <mxPoint x="-12" y="21" as="offset"/>
                    </mxGeometry>
                </mxCell>
                <mxCell id="42" style="edgeStyle=orthogonalEdgeStyle;curved=0;rounded=1;sketch=0;orthogonalLoop=1;jettySize=auto;html=1;entryX=0.25;entryY=1;entryDx=0;entryDy=0;fontColor=#393C56;strokeColor=#E07A5F;fillColor=#F2CC8F;exitX=1;exitY=0.5;exitDx=0;exitDy=0;labelBackgroundColor=#F4F1DE;" parent="1" source="39" edge="1">
                    <mxGeometry relative="1" as="geometry">
                        <mxPoint x="260" y="455" as="sourcePoint"/>
                        <mxPoint x="359" y="330" as="targetPoint"/>
                        <Array as="points">
                            <mxPoint x="359" y="455"/>
                        </Array>
                    </mxGeometry>
                </mxCell>
                <mxCell id="47" value="2" style="edgeLabel;html=1;align=center;verticalAlign=middle;resizable=0;points=[];fontColor=#393C56;labelBackgroundColor=#F4F1DE;" parent="42" vertex="1" connectable="0">
                    <mxGeometry x="-0.6" y="2" relative="1" as="geometry">
                        <mxPoint x="-32" y="7" as="offset"/>
                    </mxGeometry>
                </mxCell>
                <mxCell id="70" value="&lt;span style=&quot;background-color: rgb(244 , 241 , 222)&quot;&gt;{Fee_30_SmallSector_SetFlagCancelRequested(FALSE);&lt;/span&gt;&lt;span style=&quot;font-size: 12px ; text-align: left ; background-color: rgb(248 , 249 , 250)&quot;&gt;}&lt;/span&gt;" style="edgeLabel;html=1;align=center;verticalAlign=middle;resizable=0;points=[];fontColor=#393C56;labelBackgroundColor=#F4F1DE;" parent="42" vertex="1" connectable="0">
                    <mxGeometry x="-0.0723" relative="1" as="geometry">
                        <mxPoint x="41" y="-12" as="offset"/>
                    </mxGeometry>
                </mxCell>
                <mxCell id="39" value="" style="ellipse;fillColor=#F2CC8F;strokeColor=#E07A5F;rounded=0;sketch=0;fontColor=#393C56;" parent="1" vertex="1">
                    <mxGeometry x="246" y="450" width="10" height="10" as="geometry"/>
                </mxCell>
                <mxCell id="48" value="[Fee_30_SmallSector_InternalFlags.JobRequested == FALSE]/&lt;br&gt;{Fee_30_SmallSector_SetFlagMainFunctionBusy(FALSE);...&lt;br&gt;&lt;span style=&quot;font-size: 11px ; text-align: center ; background-color: rgb(244 , 241 , 222)&quot;&gt;Fee_30_SmallSector_SetFlagCancelRequested(FALSE);&lt;/span&gt;}" style="text;html=1;align=left;verticalAlign=middle;resizable=0;points=[];autosize=1;strokeColor=none;fontColor=#393C56;" parent="1" vertex="1">
                    <mxGeometry x="-10" y="360" width="350" height="50" as="geometry"/>
                </mxCell>
                <mxCell id="61" style="edgeStyle=orthogonalEdgeStyle;curved=0;rounded=1;sketch=0;orthogonalLoop=1;jettySize=auto;html=1;exitX=0.5;exitY=0;exitDx=0;exitDy=0;entryX=0.5;entryY=1;entryDx=0;entryDy=0;fontColor=#393C56;strokeColor=#E07A5F;fillColor=#F2CC8F;labelBackgroundColor=#F4F1DE;" parent="1" source="3" target="2" edge="1">
                    <mxGeometry relative="1" as="geometry">
                        <mxPoint x="370" y="540" as="sourcePoint"/>
                        <Array as="points">
                            <mxPoint x="460" y="520"/>
                            <mxPoint x="460" y="520"/>
                        </Array>
                    </mxGeometry>
                </mxCell>
                <mxCell id="63" value="[(Fee_30_SmallSector_GetLayer1Status() == MEMIF_IDLE) ...&lt;br&gt;&amp;amp;&amp;amp; (Fee_30_SmallSector_InternalFlags.CancelRequested == FALSE))]/&lt;br&gt;{Fee_30_SmallSector_FinishJob(Fee_30_SmallSector_GetLayer1JobResult());}" style="edgeLabel;html=1;align=left;verticalAlign=middle;resizable=0;points=[];fontColor=#393C56;labelBackgroundColor=#F4F1DE;" parent="61" vertex="1" connectable="0">
                    <mxGeometry x="-0.8909" y="1" relative="1" as="geometry">
                        <mxPoint x="-183" y="-24" as="offset"/>
                    </mxGeometry>
                </mxCell>
                <mxCell id="64" value="2" style="edgeLabel;html=1;align=center;verticalAlign=middle;resizable=0;points=[];fontColor=#393C56;labelBackgroundColor=#F4F1DE;" parent="61" vertex="1" connectable="0">
                    <mxGeometry x="-0.9766" y="-1" relative="1" as="geometry">
                        <mxPoint x="4" y="-6" as="offset"/>
                    </mxGeometry>
                </mxCell>
            </root>
        </mxGraphModel>
    </diagram>
    <diagram id="TaNIFDbVBy5ecv9qEapG" name="READ_LAYER">
        <mxGraphModel dx="2402" dy="798" grid="1" gridSize="10" guides="1" tooltips="1" connect="1" arrows="1" fold="1" page="1" pageScale="1" pageWidth="850" pageHeight="1400" background="#F4F1DE" math="0" shadow="0">
            <root>
                <mxCell id="K0186IvJz6YYB__Of1iV-0"/>
                <mxCell id="K0186IvJz6YYB__Of1iV-1" parent="K0186IvJz6YYB__Of1iV-0"/>
                <mxCell id="UmP9M_x_PxpnxSBMJzgL-3" style="edgeStyle=orthogonalEdgeStyle;curved=0;rounded=1;sketch=0;orthogonalLoop=1;jettySize=auto;html=1;exitX=0.5;exitY=1;exitDx=0;exitDy=0;entryX=0.5;entryY=0;entryDx=0;entryDy=0;fontColor=#393C56;strokeColor=#E07A5F;fillColor=#F2CC8F;labelBackgroundColor=#F4F1DE;" parent="K0186IvJz6YYB__Of1iV-1" source="IgTGI0QN1SPkySnyLxGG-0" target="UmP9M_x_PxpnxSBMJzgL-1" edge="1">
                    <mxGeometry relative="1" as="geometry"/>
                </mxCell>
                <mxCell id="UmP9M_x_PxpnxSBMJzgL-4" value="&lt;font color=&quot;#3333ff&quot;&gt;/*Start to locate instance*/&lt;br&gt;&lt;/font&gt;[Fee_30_SmallSector_If_StartJob(&amp;amp;Fee_30_SmallSector_Rd_Instance)]" style="edgeLabel;html=1;align=left;verticalAlign=middle;resizable=0;points=[];fontColor=#393C56;labelBackgroundColor=#F4F1DE;" parent="UmP9M_x_PxpnxSBMJzgL-3" vertex="1" connectable="0">
                    <mxGeometry x="-0.1829" y="1" relative="1" as="geometry">
                        <mxPoint x="-91" y="-3" as="offset"/>
                    </mxGeometry>
                </mxCell>
                <mxCell id="hxlPhb3lD0YPFlcSgNdf-1" style="edgeStyle=orthogonalEdgeStyle;curved=0;rounded=1;sketch=0;orthogonalLoop=1;jettySize=auto;html=1;exitX=1;exitY=0.5;exitDx=0;exitDy=0;entryX=0;entryY=0.5;entryDx=0;entryDy=0;fontColor=#393C56;strokeColor=#E07A5F;fillColor=#F2CC8F;labelBackgroundColor=#F4F1DE;" parent="K0186IvJz6YYB__Of1iV-1" source="IgTGI0QN1SPkySnyLxGG-0" target="hxlPhb3lD0YPFlcSgNdf-0" edge="1">
                    <mxGeometry relative="1" as="geometry"/>
                </mxCell>
                <mxCell id="hxlPhb3lD0YPFlcSgNdf-3" value="2" style="edgeLabel;html=1;align=center;verticalAlign=middle;resizable=0;points=[];fontColor=#393C56;labelBackgroundColor=#F4F1DE;" parent="hxlPhb3lD0YPFlcSgNdf-1" vertex="1" connectable="0">
                    <mxGeometry x="-0.8909" y="2" relative="1" as="geometry">
                        <mxPoint y="-8" as="offset"/>
                    </mxGeometry>
                </mxCell>
                <mxCell id="hxlPhb3lD0YPFlcSgNdf-4" value="{Fee_30_SmallSector_Rd_FinishJob(MEMIF_JOB_FAILED);}" style="edgeLabel;html=1;align=center;verticalAlign=middle;resizable=0;points=[];fontColor=#393C56;labelBackgroundColor=#F4F1DE;" parent="hxlPhb3lD0YPFlcSgNdf-1" vertex="1" connectable="0">
                    <mxGeometry x="-0.3758" y="-2" relative="1" as="geometry">
                        <mxPoint x="81" y="-12" as="offset"/>
                    </mxGeometry>
                </mxCell>
                <mxCell id="IgTGI0QN1SPkySnyLxGG-0" value="RD_STATE_IDLE" style="html=1;align=center;verticalAlign=middle;rounded=1;absoluteArcSize=1;arcSize=10;dashed=0;sketch=0;fontColor=#393C56;strokeColor=#E07A5F;fillColor=#F2CC8F;" parent="K0186IvJz6YYB__Of1iV-1" vertex="1">
                    <mxGeometry x="230" y="130" width="260" height="40" as="geometry"/>
                </mxCell>
                <mxCell id="hxlPhb3lD0YPFlcSgNdf-5" style="edgeStyle=orthogonalEdgeStyle;curved=0;rounded=1;sketch=0;orthogonalLoop=1;jettySize=auto;html=1;exitX=1;exitY=0.5;exitDx=0;exitDy=0;entryX=0;entryY=1;entryDx=0;entryDy=0;fontColor=#393C56;strokeColor=#E07A5F;fillColor=#F2CC8F;labelBackgroundColor=#F4F1DE;" parent="K0186IvJz6YYB__Of1iV-1" source="UmP9M_x_PxpnxSBMJzgL-1" target="hxlPhb3lD0YPFlcSgNdf-0" edge="1">
                    <mxGeometry relative="1" as="geometry"/>
                </mxCell>
                <mxCell id="hxlPhb3lD0YPFlcSgNdf-6" value="2" style="edgeLabel;html=1;align=center;verticalAlign=middle;resizable=0;points=[];fontColor=#393C56;labelBackgroundColor=#F4F1DE;" parent="hxlPhb3lD0YPFlcSgNdf-5" vertex="1" connectable="0">
                    <mxGeometry x="-0.9007" y="2" relative="1" as="geometry">
                        <mxPoint x="-12" y="-8" as="offset"/>
                    </mxGeometry>
                </mxCell>
                <mxCell id="c3E8xZmHFHp0bNmQOcH5-29" value="Fee_30_SmallSector_Rd_FinishJob(Fee_30_SmallSector_If_MapResult(Fee_30_SmallSector_If_GetJobResult()));" style="edgeLabel;html=1;align=center;verticalAlign=middle;resizable=0;points=[];fontColor=#393C56;labelBackgroundColor=#F4F1DE;" parent="hxlPhb3lD0YPFlcSgNdf-5" vertex="1" connectable="0">
                    <mxGeometry x="-0.3977" relative="1" as="geometry">
                        <mxPoint x="173" y="-10" as="offset"/>
                    </mxGeometry>
                </mxCell>
                <mxCell id="c3E8xZmHFHp0bNmQOcH5-10" style="edgeStyle=orthogonalEdgeStyle;curved=0;rounded=1;sketch=0;orthogonalLoop=1;jettySize=auto;html=1;exitX=0.5;exitY=1;exitDx=0;exitDy=0;fontColor=#393C56;strokeColor=#E07A5F;fillColor=#F2CC8F;align=left;labelBackgroundColor=#F4F1DE;" parent="K0186IvJz6YYB__Of1iV-1" source="UmP9M_x_PxpnxSBMJzgL-1" edge="1">
                    <mxGeometry relative="1" as="geometry">
                        <mxPoint x="360" y="330" as="targetPoint"/>
                    </mxGeometry>
                </mxCell>
                <mxCell id="c3E8xZmHFHp0bNmQOcH5-11" value="1" style="edgeLabel;html=1;align=center;verticalAlign=middle;resizable=0;points=[];fontColor=#393C56;labelBackgroundColor=#F4F1DE;" parent="c3E8xZmHFHp0bNmQOcH5-10" vertex="1" connectable="0">
                    <mxGeometry x="-0.7575" y="2" relative="1" as="geometry">
                        <mxPoint x="8" y="4" as="offset"/>
                    </mxGeometry>
                </mxCell>
                <mxCell id="c3E8xZmHFHp0bNmQOcH5-12" value="[(Fee_30_SmallSector_If_MapResult(Fee_30_SmallSector_If_GetJobResult()) == MEMIF_JOB_OK)]" style="edgeLabel;html=1;align=left;verticalAlign=middle;resizable=0;points=[];fontColor=#393C56;labelBackgroundColor=#F4F1DE;" parent="c3E8xZmHFHp0bNmQOcH5-10" vertex="1" connectable="0">
                    <mxGeometry x="-0.7075" y="2" relative="1" as="geometry">
                        <mxPoint x="-162" y="13" as="offset"/>
                    </mxGeometry>
                </mxCell>
                <mxCell id="UmP9M_x_PxpnxSBMJzgL-1" value="RD_STATE_WAIT_FOR_INSTANCEFINDER" style="html=1;align=center;verticalAlign=middle;rounded=1;absoluteArcSize=1;arcSize=10;dashed=0;sketch=0;fontColor=#393C56;strokeColor=#E07A5F;fillColor=#F2CC8F;" parent="K0186IvJz6YYB__Of1iV-1" vertex="1">
                    <mxGeometry x="230" y="240" width="260" height="40" as="geometry"/>
                </mxCell>
                <mxCell id="c3E8xZmHFHp0bNmQOcH5-30" style="edgeStyle=orthogonalEdgeStyle;curved=0;rounded=1;sketch=0;orthogonalLoop=1;jettySize=auto;html=1;exitX=0.5;exitY=1;exitDx=0;exitDy=0;entryX=1;entryY=0.5;entryDx=0;entryDy=0;fontColor=#393C56;strokeColor=#E07A5F;fillColor=#F2CC8F;labelBackgroundColor=#F4F1DE;" parent="K0186IvJz6YYB__Of1iV-1" source="UmP9M_x_PxpnxSBMJzgL-2" target="hxlPhb3lD0YPFlcSgNdf-0" edge="1">
                    <mxGeometry relative="1" as="geometry">
                        <Array as="points">
                            <mxPoint x="360" y="530"/>
                            <mxPoint x="1120" y="530"/>
                            <mxPoint x="1120" y="150"/>
                        </Array>
                    </mxGeometry>
                </mxCell>
                <mxCell id="c3E8xZmHFHp0bNmQOcH5-31" value="{Fee_30_SmallSector_Rd_FinishJob(Fee_30_SmallSector_Fls_GetJobResult());}" style="edgeLabel;html=1;align=center;verticalAlign=middle;resizable=0;points=[];fontColor=#393C56;labelBackgroundColor=#F4F1DE;" parent="c3E8xZmHFHp0bNmQOcH5-30" vertex="1" connectable="0">
                    <mxGeometry x="-0.7506" y="1" relative="1" as="geometry">
                        <mxPoint x="34" y="11" as="offset"/>
                    </mxGeometry>
                </mxCell>
                <mxCell id="UmP9M_x_PxpnxSBMJzgL-2" value="RD_STATE_READ_DATA" style="html=1;align=center;verticalAlign=middle;rounded=1;absoluteArcSize=1;arcSize=10;dashed=0;sketch=0;fontColor=#393C56;strokeColor=#E07A5F;fillColor=#F2CC8F;" parent="K0186IvJz6YYB__Of1iV-1" vertex="1">
                    <mxGeometry x="230" y="470" width="260" height="40" as="geometry"/>
                </mxCell>
                <mxCell id="hxlPhb3lD0YPFlcSgNdf-0" value="" style="ellipse;html=1;shape=endState;fillColor=#F2CC8F;strokeColor=#E07A5F;rounded=0;sketch=0;fontColor=#393C56;" parent="K0186IvJz6YYB__Of1iV-1" vertex="1">
                    <mxGeometry x="840" y="135" width="30" height="30" as="geometry"/>
                </mxCell>
                <mxCell id="hxlPhb3lD0YPFlcSgNdf-2" value="1" style="text;html=1;align=center;verticalAlign=middle;resizable=0;points=[];autosize=1;strokeColor=none;fontColor=#393C56;" parent="K0186IvJz6YYB__Of1iV-1" vertex="1">
                    <mxGeometry x="340" y="170" width="20" height="20" as="geometry"/>
                </mxCell>
                <mxCell id="c3E8xZmHFHp0bNmQOcH5-8" style="edgeStyle=orthogonalEdgeStyle;curved=0;rounded=1;sketch=0;orthogonalLoop=1;jettySize=auto;html=1;exitX=0;exitY=0;exitDx=160;exitDy=25;exitPerimeter=0;fontColor=#393C56;strokeColor=#E07A5F;fillColor=#F2CC8F;labelBackgroundColor=#F4F1DE;" parent="K0186IvJz6YYB__Of1iV-1" source="c3E8xZmHFHp0bNmQOcH5-7" edge="1">
                    <mxGeometry relative="1" as="geometry">
                        <mxPoint x="340" y="220" as="targetPoint"/>
                    </mxGeometry>
                </mxCell>
                <mxCell id="c3E8xZmHFHp0bNmQOcH5-7" value="这个地方通过代码设计制造了一种同步的形式，实际是通过制造高优先级的FEE_30_SMALLSECTOR_INSTANCE_FINDER_LAYER“任务”，状态转换时，高优先级任务，直到这个高优先级的任务完成之后再继续执行&lt;span&gt;RD_STATE_WAIT_FOR_INSTANCEFINDER去检查查找读取的结果&lt;/span&gt;" style="shape=note2;boundedLbl=1;whiteSpace=wrap;html=1;size=25;verticalAlign=top;align=center;rounded=0;sketch=0;fontColor=#393C56;strokeColor=#E07A5F;fillColor=#F2CC8F;" parent="K0186IvJz6YYB__Of1iV-1" vertex="1">
                    <mxGeometry x="-300" y="195" width="390" height="105" as="geometry"/>
                </mxCell>
                <mxCell id="c3E8xZmHFHp0bNmQOcH5-14" style="edgeStyle=orthogonalEdgeStyle;curved=0;rounded=1;sketch=0;orthogonalLoop=1;jettySize=auto;html=1;exitX=0.5;exitY=1;exitDx=0;exitDy=0;entryX=0.5;entryY=0;entryDx=0;entryDy=0;fontColor=#393C56;strokeColor=#E07A5F;fillColor=#F2CC8F;labelBackgroundColor=#F4F1DE;" parent="K0186IvJz6YYB__Of1iV-1" source="c3E8xZmHFHp0bNmQOcH5-13" target="UmP9M_x_PxpnxSBMJzgL-2" edge="1">
                    <mxGeometry relative="1" as="geometry"/>
                </mxCell>
                <mxCell id="c3E8xZmHFHp0bNmQOcH5-16" value="&lt;div&gt;&lt;font color=&quot;#3333ff&quot;&gt;/*Start to read instance*/&lt;/font&gt;&lt;/div&gt;&lt;div&gt;[Fee_30_SmallSector_Ih_ReadData(&amp;amp;Fee_30_SmallSector_Rd_Instance,Fee_30_SmallSector_Rd_UserJobParameter.DataBufferPtr,...&lt;/div&gt;&lt;div&gt;Fee_30_SmallSector_Rd_UserJobParameter.BlockOffset,Fee_30_SmallSector_Rd_UserJobParameter.Length) == E_OK]&lt;/div&gt;" style="edgeLabel;html=1;align=left;verticalAlign=middle;resizable=0;points=[];fontColor=#393C56;labelBackgroundColor=#F4F1DE;" parent="c3E8xZmHFHp0bNmQOcH5-14" vertex="1" connectable="0">
                    <mxGeometry x="-0.7414" relative="1" as="geometry">
                        <mxPoint x="-170" y="30" as="offset"/>
                    </mxGeometry>
                </mxCell>
                <mxCell id="c3E8xZmHFHp0bNmQOcH5-17" value="1" style="edgeLabel;html=1;align=center;verticalAlign=middle;resizable=0;points=[];fontColor=#393C56;labelBackgroundColor=#F4F1DE;" parent="c3E8xZmHFHp0bNmQOcH5-14" vertex="1" connectable="0">
                    <mxGeometry x="-0.7931" y="2" relative="1" as="geometry">
                        <mxPoint as="offset"/>
                    </mxGeometry>
                </mxCell>
                <mxCell id="c3E8xZmHFHp0bNmQOcH5-15" style="edgeStyle=orthogonalEdgeStyle;curved=0;rounded=1;sketch=0;orthogonalLoop=1;jettySize=auto;html=1;exitX=1;exitY=0.5;exitDx=0;exitDy=0;entryX=1;entryY=1;entryDx=0;entryDy=0;fontColor=#393C56;strokeColor=#E07A5F;fillColor=#F2CC8F;labelBackgroundColor=#F4F1DE;" parent="K0186IvJz6YYB__Of1iV-1" source="c3E8xZmHFHp0bNmQOcH5-13" target="hxlPhb3lD0YPFlcSgNdf-0" edge="1">
                    <mxGeometry relative="1" as="geometry"/>
                </mxCell>
                <mxCell id="c3E8xZmHFHp0bNmQOcH5-18" value="2" style="edgeLabel;html=1;align=center;verticalAlign=middle;resizable=0;points=[];fontColor=#393C56;labelBackgroundColor=#F4F1DE;" parent="c3E8xZmHFHp0bNmQOcH5-15" vertex="1" connectable="0">
                    <mxGeometry x="-0.956" y="2" relative="1" as="geometry">
                        <mxPoint as="offset"/>
                    </mxGeometry>
                </mxCell>
                <mxCell id="c3E8xZmHFHp0bNmQOcH5-26" value="{Fee_30_SmallSector_Rd_FinishJob(MEMIF_JOB_FAILED);}" style="edgeLabel;html=1;align=center;verticalAlign=middle;resizable=0;points=[];fontColor=#393C56;labelBackgroundColor=#F4F1DE;" parent="c3E8xZmHFHp0bNmQOcH5-15" vertex="1" connectable="0">
                    <mxGeometry x="-0.8552" y="3" relative="1" as="geometry">
                        <mxPoint x="123" y="-5" as="offset"/>
                    </mxGeometry>
                </mxCell>
                <mxCell id="c3E8xZmHFHp0bNmQOcH5-13" value="" style="ellipse;fillColor=#F2CC8F;strokeColor=#E07A5F;rounded=0;sketch=0;fontColor=#393C56;" parent="K0186IvJz6YYB__Of1iV-1" vertex="1">
                    <mxGeometry x="355" y="380" width="10" height="10" as="geometry"/>
                </mxCell>
                <mxCell id="c3E8xZmHFHp0bNmQOcH5-20" style="edgeStyle=orthogonalEdgeStyle;curved=0;rounded=1;sketch=0;orthogonalLoop=1;jettySize=auto;html=1;exitX=0.5;exitY=1;exitDx=0;exitDy=0;entryX=0.5;entryY=0;entryDx=0;entryDy=0;fontColor=#393C56;strokeColor=#E07A5F;fillColor=#F2CC8F;labelBackgroundColor=#F4F1DE;" parent="K0186IvJz6YYB__Of1iV-1" source="c3E8xZmHFHp0bNmQOcH5-19" target="c3E8xZmHFHp0bNmQOcH5-13" edge="1">
                    <mxGeometry relative="1" as="geometry"/>
                </mxCell>
                <mxCell id="c3E8xZmHFHp0bNmQOcH5-22" value="&lt;span style=&quot;text-align: left ; background-color: rgb(244 , 241 , 222)&quot;&gt;[Fee_30_SmallSector_Rd_Instance.InstanceStatus == INSTANCE_STATUS_OK]&lt;/span&gt;" style="edgeLabel;html=1;align=center;verticalAlign=middle;resizable=0;points=[];fontColor=#393C56;labelBackgroundColor=#F4F1DE;" parent="c3E8xZmHFHp0bNmQOcH5-20" vertex="1" connectable="0">
                    <mxGeometry x="-0.2944" y="1" relative="1" as="geometry">
                        <mxPoint x="29" y="2" as="offset"/>
                    </mxGeometry>
                </mxCell>
                <mxCell id="c3E8xZmHFHp0bNmQOcH5-23" value="1" style="edgeLabel;html=1;align=center;verticalAlign=middle;resizable=0;points=[];fontColor=#393C56;labelBackgroundColor=#F4F1DE;" parent="c3E8xZmHFHp0bNmQOcH5-20" vertex="1" connectable="0">
                    <mxGeometry x="-0.693" relative="1" as="geometry">
                        <mxPoint x="5" as="offset"/>
                    </mxGeometry>
                </mxCell>
                <mxCell id="c3E8xZmHFHp0bNmQOcH5-21" style="edgeStyle=orthogonalEdgeStyle;curved=0;rounded=1;sketch=0;orthogonalLoop=1;jettySize=auto;html=1;exitX=1;exitY=0.5;exitDx=0;exitDy=0;fontColor=#393C56;strokeColor=#E07A5F;fillColor=#F2CC8F;entryX=0.5;entryY=1;entryDx=0;entryDy=0;labelBackgroundColor=#F4F1DE;" parent="K0186IvJz6YYB__Of1iV-1" source="c3E8xZmHFHp0bNmQOcH5-19" target="hxlPhb3lD0YPFlcSgNdf-0" edge="1">
                    <mxGeometry relative="1" as="geometry">
                        <mxPoint x="849.9999999999995" y="270" as="targetPoint"/>
                    </mxGeometry>
                </mxCell>
                <mxCell id="c3E8xZmHFHp0bNmQOcH5-24" value="2" style="edgeLabel;html=1;align=center;verticalAlign=middle;resizable=0;points=[];fontColor=#393C56;labelBackgroundColor=#F4F1DE;" parent="c3E8xZmHFHp0bNmQOcH5-21" vertex="1" connectable="0">
                    <mxGeometry x="-0.9628" y="1" relative="1" as="geometry">
                        <mxPoint y="-7" as="offset"/>
                    </mxGeometry>
                </mxCell>
                <mxCell id="c3E8xZmHFHp0bNmQOcH5-25" value="{ Fee_30_SmallSector_Rd_FinishJob(Fee_30_SmallSector_Ih_SetNegativeJobResultAccordingToStatus(&amp;amp;Fee_30_SmallSector_Rd_Instance));}" style="edgeLabel;html=1;align=center;verticalAlign=middle;resizable=0;points=[];fontColor=#393C56;labelBackgroundColor=#F4F1DE;" parent="c3E8xZmHFHp0bNmQOcH5-21" vertex="1" connectable="0">
                    <mxGeometry x="-0.9116" y="3" relative="1" as="geometry">
                        <mxPoint x="346" y="-5" as="offset"/>
                    </mxGeometry>
                </mxCell>
                <mxCell id="c3E8xZmHFHp0bNmQOcH5-19" value="" style="ellipse;fillColor=#F2CC8F;strokeColor=#E07A5F;rounded=0;sketch=0;fontColor=#393C56;" parent="K0186IvJz6YYB__Of1iV-1" vertex="1">
                    <mxGeometry x="355" y="330" width="10" height="10" as="geometry"/>
                </mxCell>
            </root>
        </mxGraphModel>
    </diagram>
    <diagram id="8Ukg5W2mCINATpaanWIa" name="INSTANCE_FINDER_LAYER">
        <mxGraphModel dx="3067" dy="1140" grid="1" gridSize="10" guides="1" tooltips="1" connect="1" arrows="1" fold="1" page="1" pageScale="1" pageWidth="850" pageHeight="1400" background="#F4F1DE" math="0" shadow="0">
            <root>
                <mxCell id="zDZ77X24BfpkBpLbCkuI-0"/>
                <mxCell id="zDZ77X24BfpkBpLbCkuI-1" parent="zDZ77X24BfpkBpLbCkuI-0"/>
                <mxCell id="zDZ77X24BfpkBpLbCkuI-4" style="edgeStyle=orthogonalEdgeStyle;curved=0;rounded=1;sketch=0;orthogonalLoop=1;jettySize=auto;html=1;exitX=0.5;exitY=1;exitDx=0;exitDy=0;entryX=0.5;entryY=0;entryDx=0;entryDy=0;fontColor=#393C56;strokeColor=#E07A5F;fillColor=#F2CC8F;labelBackgroundColor=#F4F1DE;" parent="zDZ77X24BfpkBpLbCkuI-1" source="zDZ77X24BfpkBpLbCkuI-2" target="zDZ77X24BfpkBpLbCkuI-3" edge="1">
                    <mxGeometry relative="1" as="geometry"/>
                </mxCell>
                <mxCell id="zDZ77X24BfpkBpLbCkuI-5" value="&lt;font color=&quot;#3333ff&quot;&gt;/*Read the start 4 bytes of the dataset to check erase pattern*/&lt;br&gt;&lt;/font&gt;[Fee_30_SmallSector_Dh_CheckErasePattern() ==E_OK]" style="edgeLabel;html=1;align=left;verticalAlign=middle;resizable=0;points=[];fontColor=#393C56;labelBackgroundColor=#F4F1DE;" parent="zDZ77X24BfpkBpLbCkuI-4" vertex="1" connectable="0">
                    <mxGeometry x="-0.225" y="3" relative="1" as="geometry">
                        <mxPoint x="-88" y="-22" as="offset"/>
                    </mxGeometry>
                </mxCell>
                <mxCell id="_7pMcjoVDyZDiTtCQOkf-3" value="1" style="edgeLabel;html=1;align=center;verticalAlign=middle;resizable=0;points=[];fontColor=#393C56;labelBackgroundColor=#F4F1DE;" parent="zDZ77X24BfpkBpLbCkuI-4" vertex="1" connectable="0">
                    <mxGeometry x="-0.8375" relative="1" as="geometry">
                        <mxPoint x="-6" as="offset"/>
                    </mxGeometry>
                </mxCell>
                <mxCell id="_7pMcjoVDyZDiTtCQOkf-1" style="edgeStyle=orthogonalEdgeStyle;curved=0;rounded=1;sketch=0;orthogonalLoop=1;jettySize=auto;html=1;exitX=1;exitY=0.5;exitDx=0;exitDy=0;fontColor=#393C56;strokeColor=#E07A5F;fillColor=#F2CC8F;labelBackgroundColor=#F4F1DE;" parent="zDZ77X24BfpkBpLbCkuI-1" source="zDZ77X24BfpkBpLbCkuI-2" target="_7pMcjoVDyZDiTtCQOkf-0" edge="1">
                    <mxGeometry relative="1" as="geometry"/>
                </mxCell>
                <mxCell id="_7pMcjoVDyZDiTtCQOkf-2" value="{Fee_30_SmallSector_If_FinishJob(INSTANCE_FINDER_FAILED);}" style="edgeLabel;html=1;align=center;verticalAlign=middle;resizable=0;points=[];fontColor=#393C56;labelBackgroundColor=#F4F1DE;" parent="_7pMcjoVDyZDiTtCQOkf-1" vertex="1" connectable="0">
                    <mxGeometry x="-0.781" y="2" relative="1" as="geometry">
                        <mxPoint x="156" y="-13" as="offset"/>
                    </mxGeometry>
                </mxCell>
                <mxCell id="_7pMcjoVDyZDiTtCQOkf-4" value="2" style="edgeLabel;html=1;align=center;verticalAlign=middle;resizable=0;points=[];fontColor=#393C56;labelBackgroundColor=#F4F1DE;" parent="_7pMcjoVDyZDiTtCQOkf-1" vertex="1" connectable="0">
                    <mxGeometry x="-0.94" y="3" relative="1" as="geometry">
                        <mxPoint as="offset"/>
                    </mxGeometry>
                </mxCell>
                <mxCell id="zDZ77X24BfpkBpLbCkuI-2" value="IF_STATE_IDLE" style="html=1;align=center;verticalAlign=middle;rounded=1;absoluteArcSize=1;arcSize=10;dashed=0;sketch=0;fontColor=#393C56;strokeColor=#E07A5F;fillColor=#F2CC8F;" parent="zDZ77X24BfpkBpLbCkuI-1" vertex="1">
                    <mxGeometry x="140" y="80" width="230" height="40" as="geometry"/>
                </mxCell>
                <mxCell id="_7pMcjoVDyZDiTtCQOkf-6" style="edgeStyle=orthogonalEdgeStyle;curved=0;rounded=1;sketch=0;orthogonalLoop=1;jettySize=auto;html=1;exitX=0.5;exitY=1;exitDx=0;exitDy=0;entryX=0.5;entryY=0;entryDx=0;entryDy=0;fontColor=#393C56;strokeColor=#E07A5F;fillColor=#F2CC8F;labelBackgroundColor=#F4F1DE;" parent="zDZ77X24BfpkBpLbCkuI-1" source="zDZ77X24BfpkBpLbCkuI-3" target="wYyobDq8ymGCW9CUxBK6-0" edge="1">
                    <mxGeometry relative="1" as="geometry"/>
                </mxCell>
                <mxCell id="_7pMcjoVDyZDiTtCQOkf-7" value="[Fee_30_SmallSector_Dh_IsErasePatternBlank() == TRUE) &amp;amp;&amp;amp; (flsJobResult == MEMIF_JOB_OK]" style="edgeLabel;html=1;align=center;verticalAlign=middle;resizable=0;points=[];fontColor=#393C56;labelBackgroundColor=#F4F1DE;" parent="_7pMcjoVDyZDiTtCQOkf-6" vertex="1" connectable="0">
                    <mxGeometry x="0.1818" y="-2" relative="1" as="geometry">
                        <mxPoint x="77" y="-15" as="offset"/>
                    </mxGeometry>
                </mxCell>
                <mxCell id="wYyobDq8ymGCW9CUxBK6-11" value="1" style="edgeLabel;html=1;align=center;verticalAlign=middle;resizable=0;points=[];fontColor=#393C56;labelBackgroundColor=#F4F1DE;" parent="_7pMcjoVDyZDiTtCQOkf-6" vertex="1" connectable="0">
                    <mxGeometry x="-0.7891" relative="1" as="geometry">
                        <mxPoint x="5" as="offset"/>
                    </mxGeometry>
                </mxCell>
                <mxCell id="wYyobDq8ymGCW9CUxBK6-9" style="edgeStyle=orthogonalEdgeStyle;curved=0;rounded=1;sketch=0;orthogonalLoop=1;jettySize=auto;html=1;exitX=1;exitY=0.5;exitDx=0;exitDy=0;entryX=0;entryY=1;entryDx=0;entryDy=0;fontColor=#393C56;strokeColor=#E07A5F;fillColor=#F2CC8F;labelBackgroundColor=#F4F1DE;" parent="zDZ77X24BfpkBpLbCkuI-1" source="zDZ77X24BfpkBpLbCkuI-3" target="_7pMcjoVDyZDiTtCQOkf-0" edge="1">
                    <mxGeometry relative="1" as="geometry"/>
                </mxCell>
                <mxCell id="wYyobDq8ymGCW9CUxBK6-10" value="{Fee_30_SmallSector_If_FinishJob(INSTANCE_FINDER_EP1_INCORRECT);}" style="edgeLabel;html=1;align=center;verticalAlign=middle;resizable=0;points=[];fontColor=#393C56;labelBackgroundColor=#F4F1DE;" parent="wYyobDq8ymGCW9CUxBK6-9" vertex="1" connectable="0">
                    <mxGeometry x="-0.9274" y="2" relative="1" as="geometry">
                        <mxPoint x="184" y="-8" as="offset"/>
                    </mxGeometry>
                </mxCell>
                <mxCell id="wYyobDq8ymGCW9CUxBK6-12" value="2" style="edgeLabel;html=1;align=center;verticalAlign=middle;resizable=0;points=[];fontColor=#393C56;labelBackgroundColor=#F4F1DE;" parent="wYyobDq8ymGCW9CUxBK6-9" vertex="1" connectable="0">
                    <mxGeometry x="-0.9864" relative="1" as="geometry">
                        <mxPoint y="-10" as="offset"/>
                    </mxGeometry>
                </mxCell>
                <mxCell id="zDZ77X24BfpkBpLbCkuI-3" value="IF_STATE_CHECK_ERASE_PATTERN1" style="html=1;align=center;verticalAlign=middle;rounded=1;absoluteArcSize=1;arcSize=10;dashed=0;sketch=0;fontColor=#393C56;strokeColor=#E07A5F;fillColor=#F2CC8F;" parent="zDZ77X24BfpkBpLbCkuI-1" vertex="1">
                    <mxGeometry x="120" y="280" width="270" height="40" as="geometry"/>
                </mxCell>
                <mxCell id="_7pMcjoVDyZDiTtCQOkf-0" value="" style="ellipse;html=1;shape=endState;fillColor=#F2CC8F;strokeColor=#E07A5F;rounded=0;sketch=0;fontColor=#393C56;" parent="zDZ77X24BfpkBpLbCkuI-1" vertex="1">
                    <mxGeometry x="770" y="85" width="30" height="30" as="geometry"/>
                </mxCell>
                <mxCell id="wYyobDq8ymGCW9CUxBK6-14" style="edgeStyle=orthogonalEdgeStyle;curved=0;rounded=1;sketch=0;orthogonalLoop=1;jettySize=auto;html=1;exitX=0.5;exitY=1;exitDx=0;exitDy=0;entryX=0.5;entryY=0;entryDx=0;entryDy=0;fontColor=#393C56;strokeColor=#E07A5F;fillColor=#F2CC8F;labelBackgroundColor=#F4F1DE;" parent="zDZ77X24BfpkBpLbCkuI-1" source="_7pMcjoVDyZDiTtCQOkf-5" target="Xu7gIdGJ_-3xiPnR1GnM-0" edge="1">
                    <mxGeometry relative="1" as="geometry"/>
                </mxCell>
                <mxCell id="wYyobDq8ymGCW9CUxBK6-15" value="[(Fee_30_SmallSector_Fls_GetJobResult() == MEMIF_JOB_OK) &amp;amp;&amp;amp; ...&lt;br&gt;(Fee_30_SmallSector_Dh_IsErasePatternValid() == TRUE)]&lt;br&gt;/{ Fee_30_SmallSector_Ih_CreateInstance(Fee_30_SmallSector_If_Instance, Fee_30_SmallSector_Dh_GetFirstInstanceAddress(), Fee_30_SmallSector_Dh_GetDataLength());}" style="edgeLabel;html=1;align=left;verticalAlign=middle;resizable=0;points=[];fontColor=#393C56;labelBackgroundColor=#F4F1DE;" parent="wYyobDq8ymGCW9CUxBK6-14" vertex="1" connectable="0">
                    <mxGeometry x="-0.3886" relative="1" as="geometry">
                        <mxPoint y="6" as="offset"/>
                    </mxGeometry>
                </mxCell>
                <mxCell id="wYyobDq8ymGCW9CUxBK6-16" value="1" style="edgeLabel;html=1;align=center;verticalAlign=middle;resizable=0;points=[];fontColor=#393C56;labelBackgroundColor=#F4F1DE;" parent="wYyobDq8ymGCW9CUxBK6-14" vertex="1" connectable="0">
                    <mxGeometry x="-0.8457" y="-1" relative="1" as="geometry">
                        <mxPoint x="-4" as="offset"/>
                    </mxGeometry>
                </mxCell>
                <mxCell id="Xu7gIdGJ_-3xiPnR1GnM-7" style="edgeStyle=orthogonalEdgeStyle;curved=0;rounded=1;sketch=0;orthogonalLoop=1;jettySize=auto;html=1;exitX=1;exitY=0.5;exitDx=0;exitDy=0;entryX=1;entryY=1;entryDx=0;entryDy=0;fontColor=#393C56;strokeColor=#E07A5F;fillColor=#F2CC8F;labelBackgroundColor=#F4F1DE;" parent="zDZ77X24BfpkBpLbCkuI-1" source="_7pMcjoVDyZDiTtCQOkf-5" target="_7pMcjoVDyZDiTtCQOkf-0" edge="1">
                    <mxGeometry relative="1" as="geometry"/>
                </mxCell>
                <mxCell id="Xu7gIdGJ_-3xiPnR1GnM-8" value="{Fee_30_SmallSector_If_FinishJob(INSTANCE_FINDER_EP2_INCORRECT);}" style="edgeLabel;html=1;align=center;verticalAlign=middle;resizable=0;points=[];fontColor=#393C56;labelBackgroundColor=#F4F1DE;" parent="Xu7gIdGJ_-3xiPnR1GnM-7" vertex="1" connectable="0">
                    <mxGeometry x="-0.634" y="3" relative="1" as="geometry">
                        <mxPoint x="60" y="-7" as="offset"/>
                    </mxGeometry>
                </mxCell>
                <mxCell id="_7pMcjoVDyZDiTtCQOkf-5" value="IF_STATE_READ_ERASE_PATTERN2" style="html=1;align=center;verticalAlign=middle;rounded=1;absoluteArcSize=1;arcSize=10;dashed=0;sketch=0;fontColor=#393C56;strokeColor=#E07A5F;fillColor=#F2CC8F;" parent="zDZ77X24BfpkBpLbCkuI-1" vertex="1">
                    <mxGeometry x="120" y="450" width="270" height="40" as="geometry"/>
                </mxCell>
                <mxCell id="wYyobDq8ymGCW9CUxBK6-3" style="edgeStyle=orthogonalEdgeStyle;curved=0;rounded=1;sketch=0;orthogonalLoop=1;jettySize=auto;html=1;exitX=0.5;exitY=1;exitDx=0;exitDy=0;entryX=0.5;entryY=0;entryDx=0;entryDy=0;fontColor=#393C56;strokeColor=#E07A5F;fillColor=#F2CC8F;labelBackgroundColor=#F4F1DE;" parent="zDZ77X24BfpkBpLbCkuI-1" source="wYyobDq8ymGCW9CUxBK6-0" target="_7pMcjoVDyZDiTtCQOkf-5" edge="1">
                    <mxGeometry relative="1" as="geometry"/>
                </mxCell>
                <mxCell id="wYyobDq8ymGCW9CUxBK6-5" value="&lt;font color=&quot;#3333ff&quot;&gt;/*Read the last four bytes in Dataset*/&lt;br&gt;&lt;/font&gt;[Fee_30_SmallSector_Dh_ReadErasePattern(DATASET_ERASE_PATTERN_2) == E_OK]" style="edgeLabel;html=1;align=left;verticalAlign=middle;resizable=0;points=[];fontColor=#393C56;labelBackgroundColor=#F4F1DE;" parent="wYyobDq8ymGCW9CUxBK6-3" vertex="1" connectable="0">
                    <mxGeometry x="-0.2095" y="-1" relative="1" as="geometry">
                        <mxPoint x="-192" y="6" as="offset"/>
                    </mxGeometry>
                </mxCell>
                <mxCell id="wYyobDq8ymGCW9CUxBK6-6" value="1" style="edgeLabel;html=1;align=center;verticalAlign=middle;resizable=0;points=[];fontColor=#393C56;labelBackgroundColor=#F4F1DE;" parent="wYyobDq8ymGCW9CUxBK6-3" vertex="1" connectable="0">
                    <mxGeometry x="-0.7048" y="-1" relative="1" as="geometry">
                        <mxPoint x="6" as="offset"/>
                    </mxGeometry>
                </mxCell>
                <mxCell id="wYyobDq8ymGCW9CUxBK6-4" style="edgeStyle=orthogonalEdgeStyle;curved=0;rounded=1;sketch=0;orthogonalLoop=1;jettySize=auto;html=1;exitX=1;exitY=0.5;exitDx=0;exitDy=0;entryX=0.5;entryY=1;entryDx=0;entryDy=0;fontColor=#393C56;strokeColor=#E07A5F;fillColor=#F2CC8F;labelBackgroundColor=#F4F1DE;" parent="zDZ77X24BfpkBpLbCkuI-1" source="wYyobDq8ymGCW9CUxBK6-0" target="_7pMcjoVDyZDiTtCQOkf-0" edge="1">
                    <mxGeometry relative="1" as="geometry"/>
                </mxCell>
                <mxCell id="wYyobDq8ymGCW9CUxBK6-7" value="2" style="edgeLabel;html=1;align=center;verticalAlign=middle;resizable=0;points=[];fontColor=#393C56;labelBackgroundColor=#F4F1DE;" parent="wYyobDq8ymGCW9CUxBK6-4" vertex="1" connectable="0">
                    <mxGeometry x="-0.9691" relative="1" as="geometry">
                        <mxPoint y="-7" as="offset"/>
                    </mxGeometry>
                </mxCell>
                <mxCell id="wYyobDq8ymGCW9CUxBK6-8" value="{Fee_30_SmallSector_If_FinishJob(INSTANCE_FINDER_FAILED);}" style="edgeLabel;html=1;align=center;verticalAlign=middle;resizable=0;points=[];fontColor=#393C56;labelBackgroundColor=#F4F1DE;" parent="wYyobDq8ymGCW9CUxBK6-4" vertex="1" connectable="0">
                    <mxGeometry x="-0.6744" y="-1" relative="1" as="geometry">
                        <mxPoint x="80" y="-9" as="offset"/>
                    </mxGeometry>
                </mxCell>
                <mxCell id="wYyobDq8ymGCW9CUxBK6-0" value="" style="ellipse;fillColor=#F2CC8F;strokeColor=#E07A5F;rounded=0;sketch=0;fontColor=#393C56;" parent="zDZ77X24BfpkBpLbCkuI-1" vertex="1">
                    <mxGeometry x="250" y="380" width="10" height="10" as="geometry"/>
                </mxCell>
                <mxCell id="XtFhsFeFxv3Ut6uQaJTy-1" style="edgeStyle=orthogonalEdgeStyle;curved=0;rounded=1;sketch=0;orthogonalLoop=1;jettySize=auto;html=1;exitX=1;exitY=0.5;exitDx=0;exitDy=0;entryX=1;entryY=0;entryDx=0;entryDy=0;fontSize=15;fontColor=#393C56;strokeColor=#E07A5F;fillColor=#F2CC8F;labelBackgroundColor=#F4F1DE;" parent="zDZ77X24BfpkBpLbCkuI-1" source="wYyobDq8ymGCW9CUxBK6-13" target="_7pMcjoVDyZDiTtCQOkf-0" edge="1">
                    <mxGeometry relative="1" as="geometry">
                        <Array as="points">
                            <mxPoint x="1190" y="670"/>
                            <mxPoint x="1190" y="89"/>
                        </Array>
                    </mxGeometry>
                </mxCell>
                <mxCell id="XtFhsFeFxv3Ut6uQaJTy-2" value="[Fee_30_SmallSector_Ih_GetInstanceStatus(Instance) == INSTANCE_STATUS_ERASED]/ &lt;br&gt;{Fee_30_SmallSector_If_FinishJob(INSTANCE_FINDER_OK);}" style="edgeLabel;html=1;align=left;verticalAlign=middle;resizable=0;points=[];fontSize=15;fontColor=#393C56;labelBackgroundColor=#F4F1DE;" parent="XtFhsFeFxv3Ut6uQaJTy-1" vertex="1" connectable="0">
                    <mxGeometry x="-0.912" y="3" relative="1" as="geometry">
                        <mxPoint x="-28" y="-17" as="offset"/>
                    </mxGeometry>
                </mxCell>
                <mxCell id="XtFhsFeFxv3Ut6uQaJTy-3" value="1" style="edgeLabel;html=1;align=center;verticalAlign=middle;resizable=0;points=[];fontSize=15;fontColor=#393C56;labelBackgroundColor=#F4F1DE;" parent="XtFhsFeFxv3Ut6uQaJTy-1" vertex="1" connectable="0">
                    <mxGeometry x="-0.973" y="1" relative="1" as="geometry">
                        <mxPoint x="-14" y="-9" as="offset"/>
                    </mxGeometry>
                </mxCell>
                <mxCell id="XtFhsFeFxv3Ut6uQaJTy-4" style="edgeStyle=orthogonalEdgeStyle;curved=0;rounded=1;sketch=0;orthogonalLoop=1;jettySize=auto;html=1;exitX=1;exitY=1;exitDx=0;exitDy=0;entryX=0.5;entryY=0;entryDx=0;entryDy=0;fontSize=15;fontColor=#393C56;strokeColor=#E07A5F;fillColor=#F2CC8F;labelBackgroundColor=#F4F1DE;" parent="zDZ77X24BfpkBpLbCkuI-1" source="wYyobDq8ymGCW9CUxBK6-13" target="_7pMcjoVDyZDiTtCQOkf-0" edge="1">
                    <mxGeometry relative="1" as="geometry">
                        <Array as="points">
                            <mxPoint x="390" y="720"/>
                            <mxPoint x="1330" y="720"/>
                            <mxPoint x="1330" y="65"/>
                            <mxPoint x="785" y="65"/>
                        </Array>
                    </mxGeometry>
                </mxCell>
                <mxCell id="XtFhsFeFxv3Ut6uQaJTy-5" value="2" style="edgeLabel;html=1;align=center;verticalAlign=middle;resizable=0;points=[];fontSize=15;fontColor=#393C56;labelBackgroundColor=#F4F1DE;" parent="XtFhsFeFxv3Ut6uQaJTy-4" vertex="1" connectable="0">
                    <mxGeometry x="-0.9683" y="2" relative="1" as="geometry">
                        <mxPoint x="-4" y="-8" as="offset"/>
                    </mxGeometry>
                </mxCell>
                <mxCell id="XtFhsFeFxv3Ut6uQaJTy-6" value="[Fee_30_SmallSector_Dh_IsLastInstance(Fee_30_SmallSector_If_Instance) == TRUE]/&lt;br&gt;{Fee_30_SmallSector_If_FinishJob(INSTANCE_FINDER_OK);}" style="edgeLabel;html=1;align=left;verticalAlign=middle;resizable=0;points=[];fontSize=15;fontColor=#393C56;labelBackgroundColor=#F4F1DE;" parent="XtFhsFeFxv3Ut6uQaJTy-4" vertex="1" connectable="0">
                    <mxGeometry x="-0.8658" y="-2" relative="1" as="geometry">
                        <mxPoint x="-76" y="-22" as="offset"/>
                    </mxGeometry>
                </mxCell>
                <mxCell id="XtFhsFeFxv3Ut6uQaJTy-8" style="edgeStyle=orthogonalEdgeStyle;curved=0;rounded=1;sketch=0;orthogonalLoop=1;jettySize=auto;html=1;exitX=0.5;exitY=1;exitDx=0;exitDy=0;entryX=0;entryY=0.5;entryDx=0;entryDy=0;fontSize=15;fontColor=#393C56;strokeColor=#E07A5F;fillColor=#F2CC8F;labelBackgroundColor=#F4F1DE;" parent="zDZ77X24BfpkBpLbCkuI-1" source="wYyobDq8ymGCW9CUxBK6-13" target="Xu7gIdGJ_-3xiPnR1GnM-0" edge="1">
                    <mxGeometry relative="1" as="geometry">
                        <Array as="points">
                            <mxPoint x="255" y="720"/>
                            <mxPoint x="90" y="720"/>
                            <mxPoint x="90" y="575"/>
                        </Array>
                    </mxGeometry>
                </mxCell>
                <mxCell id="XtFhsFeFxv3Ut6uQaJTy-9" value="3" style="edgeLabel;html=1;align=center;verticalAlign=middle;resizable=0;points=[];fontSize=15;fontColor=#393C56;labelBackgroundColor=#F4F1DE;" parent="XtFhsFeFxv3Ut6uQaJTy-8" vertex="1" connectable="0">
                    <mxGeometry x="-0.8951" y="3" relative="1" as="geometry">
                        <mxPoint x="11" y="-13" as="offset"/>
                    </mxGeometry>
                </mxCell>
                <mxCell id="XtFhsFeFxv3Ut6uQaJTy-10" value="{ Fee_30_SmallSector_Dh_PrepareNextInstance(Fee_30_SmallSector_If_Instance);}" style="edgeLabel;html=1;align=center;verticalAlign=middle;resizable=0;points=[];fontSize=15;fontColor=#393C56;labelBackgroundColor=#F4F1DE;" parent="XtFhsFeFxv3Ut6uQaJTy-8" vertex="1" connectable="0">
                    <mxGeometry x="-0.6597" y="2" relative="1" as="geometry">
                        <mxPoint x="-161" y="8" as="offset"/>
                    </mxGeometry>
                </mxCell>
                <mxCell id="wYyobDq8ymGCW9CUxBK6-13" value="IF_STATE_EXAMINE_INSTANCE" style="html=1;align=center;verticalAlign=middle;rounded=1;absoluteArcSize=1;arcSize=10;dashed=0;sketch=0;fontColor=#393C56;strokeColor=#E07A5F;fillColor=#F2CC8F;" parent="zDZ77X24BfpkBpLbCkuI-1" vertex="1">
                    <mxGeometry x="120" y="640" width="270" height="60" as="geometry"/>
                </mxCell>
                <mxCell id="Xu7gIdGJ_-3xiPnR1GnM-1" style="edgeStyle=orthogonalEdgeStyle;curved=0;rounded=1;sketch=0;orthogonalLoop=1;jettySize=auto;html=1;exitX=0.5;exitY=1;exitDx=0;exitDy=0;entryX=0.5;entryY=0;entryDx=0;entryDy=0;fontColor=#393C56;strokeColor=#E07A5F;fillColor=#F2CC8F;labelBackgroundColor=#F4F1DE;" parent="zDZ77X24BfpkBpLbCkuI-1" source="Xu7gIdGJ_-3xiPnR1GnM-0" target="wYyobDq8ymGCW9CUxBK6-13" edge="1">
                    <mxGeometry relative="1" as="geometry"/>
                </mxCell>
                <mxCell id="Xu7gIdGJ_-3xiPnR1GnM-2" value="&lt;font color=&quot;#3333ff&quot;&gt;&lt;span style=&quot;background-color: rgb(244 , 241 , 222)&quot;&gt;/*Start to read Mgmt which at the start of a instance&amp;nbsp;&lt;br&gt;&lt;/span&gt;&lt;span style=&quot;font-size: 12px ; background-color: rgb(255 , 255 , 204)&quot;&gt;FEE_30_SMALLSECTOR_READ_MANAGEMENT_BYTES_LAYER&lt;/span&gt;&lt;/font&gt;&lt;font color=&quot;#3333ff&quot; style=&quot;background-color: rgb(255 , 255 , 255)&quot;&gt;*/&lt;br&gt;&lt;/font&gt;&lt;span style=&quot;background-color: rgb(244 , 241 , 222)&quot;&gt;[(Fee_30_SmallSector_RdMgmt_StartJob(Fee_30_SmallSector_If_Instance) == E_OK)]&lt;/span&gt;" style="edgeLabel;html=1;align=left;verticalAlign=middle;resizable=0;points=[];fontColor=#393C56;labelBackgroundColor=#F4F1DE;" parent="Xu7gIdGJ_-3xiPnR1GnM-1" vertex="1" connectable="0">
                    <mxGeometry x="-0.3222" relative="1" as="geometry">
                        <mxPoint x="5" y="10" as="offset"/>
                    </mxGeometry>
                </mxCell>
                <mxCell id="Xu7gIdGJ_-3xiPnR1GnM-5" value="1" style="edgeLabel;html=1;align=center;verticalAlign=middle;resizable=0;points=[];fontColor=#393C56;labelBackgroundColor=#F4F1DE;" parent="Xu7gIdGJ_-3xiPnR1GnM-1" vertex="1" connectable="0">
                    <mxGeometry x="-0.6667" relative="1" as="geometry">
                        <mxPoint as="offset"/>
                    </mxGeometry>
                </mxCell>
                <mxCell id="Xu7gIdGJ_-3xiPnR1GnM-3" style="edgeStyle=orthogonalEdgeStyle;curved=0;rounded=1;sketch=0;orthogonalLoop=1;jettySize=auto;html=1;exitX=1;exitY=0.5;exitDx=0;exitDy=0;entryX=1;entryY=0.5;entryDx=0;entryDy=0;fontColor=#393C56;strokeColor=#E07A5F;fillColor=#F2CC8F;labelBackgroundColor=#F4F1DE;" parent="zDZ77X24BfpkBpLbCkuI-1" source="Xu7gIdGJ_-3xiPnR1GnM-0" target="_7pMcjoVDyZDiTtCQOkf-0" edge="1">
                    <mxGeometry relative="1" as="geometry">
                        <Array as="points">
                            <mxPoint x="1180" y="575"/>
                            <mxPoint x="1180" y="100"/>
                        </Array>
                    </mxGeometry>
                </mxCell>
                <mxCell id="Xu7gIdGJ_-3xiPnR1GnM-4" value="{Fee_30_SmallSector_If_FinishJob(INSTANCE_FINDER_FAILED);}" style="edgeLabel;html=1;align=center;verticalAlign=middle;resizable=0;points=[];fontColor=#393C56;labelBackgroundColor=#F4F1DE;" parent="Xu7gIdGJ_-3xiPnR1GnM-3" vertex="1" connectable="0">
                    <mxGeometry x="-0.9577" y="-1" relative="1" as="geometry">
                        <mxPoint x="182" y="-6" as="offset"/>
                    </mxGeometry>
                </mxCell>
                <mxCell id="Xu7gIdGJ_-3xiPnR1GnM-6" value="2" style="edgeLabel;html=1;align=center;verticalAlign=middle;resizable=0;points=[];fontColor=#393C56;labelBackgroundColor=#F4F1DE;" parent="Xu7gIdGJ_-3xiPnR1GnM-3" vertex="1" connectable="0">
                    <mxGeometry x="-0.9865" y="1" relative="1" as="geometry">
                        <mxPoint as="offset"/>
                    </mxGeometry>
                </mxCell>
                <mxCell id="Xu7gIdGJ_-3xiPnR1GnM-0" value="" style="ellipse;fillColor=#F2CC8F;strokeColor=#E07A5F;rounded=0;sketch=0;fontColor=#393C56;" parent="zDZ77X24BfpkBpLbCkuI-1" vertex="1">
                    <mxGeometry x="250" y="570" width="10" height="10" as="geometry"/>
                </mxCell>
                <mxCell id="_HkQpdP_6N1_zoQCyso5-0" value="&lt;span style=&quot;color: rgb(51, 51, 255);&quot;&gt;[1] IH: Instance handler&lt;/span&gt;&lt;br style=&quot;color: rgb(51, 51, 255);&quot;&gt;&lt;span style=&quot;color: rgb(51, 51, 255);&quot;&gt;[2] DH: Data Handler&lt;/span&gt;&lt;br style=&quot;color: rgb(51, 51, 255);&quot;&gt;&lt;span style=&quot;color: rgb(51, 51, 255);&quot;&gt;[3] BH: Block Hanlder&lt;/span&gt;" style="shape=note2;boundedLbl=1;whiteSpace=wrap;html=1;size=25;verticalAlign=top;align=left;rounded=0;sketch=0;fontSize=15;fontColor=#393C56;strokeColor=#E07A5F;fillColor=#F2CC8F;" parent="zDZ77X24BfpkBpLbCkuI-1" vertex="1">
                    <mxGeometry x="750" y="880" width="220" height="90" as="geometry"/>
                </mxCell>
            </root>
        </mxGraphModel>
    </diagram>
    <diagram id="Dne14V00b0q88jaRcS4v" name="READ_MANAGEMENT_BYTES_LAYER">
        <mxGraphModel dx="2146" dy="939" grid="1" gridSize="10" guides="1" tooltips="1" connect="1" arrows="1" fold="1" page="1" pageScale="1" pageWidth="850" pageHeight="1400" background="#F4F1DE" math="0" shadow="0">
            <root>
                <mxCell id="hs8LZ54rp-vN_v10k3aM-0"/>
                <mxCell id="hs8LZ54rp-vN_v10k3aM-1" parent="hs8LZ54rp-vN_v10k3aM-0"/>
                <mxCell id="7BwOglaPhLkEs5phlPPn-5" style="edgeStyle=orthogonalEdgeStyle;curved=0;rounded=1;sketch=0;orthogonalLoop=1;jettySize=auto;html=1;exitX=0.5;exitY=1;exitDx=0;exitDy=0;fontColor=#393C56;strokeColor=#E07A5F;fillColor=#F2CC8F;labelBackgroundColor=#F4F1DE;" edge="1" parent="hs8LZ54rp-vN_v10k3aM-1" source="7BwOglaPhLkEs5phlPPn-0" target="7BwOglaPhLkEs5phlPPn-2">
                    <mxGeometry relative="1" as="geometry"/>
                </mxCell>
                <mxCell id="7BwOglaPhLkEs5phlPPn-6" value="[Fee_30_SmallSector_Ih_ReadAllMgmt(Fee_30_SmallSector_RdMgmt_Instance) == E_OK]" style="edgeLabel;html=1;align=center;verticalAlign=middle;resizable=0;points=[];fontColor=#393C56;labelBackgroundColor=#F4F1DE;" vertex="1" connectable="0" parent="7BwOglaPhLkEs5phlPPn-5">
                    <mxGeometry x="0.2316" y="3" relative="1" as="geometry">
                        <mxPoint x="37" y="-57" as="offset"/>
                    </mxGeometry>
                </mxCell>
                <mxCell id="7BwOglaPhLkEs5phlPPn-7" value="1" style="edgeLabel;html=1;align=center;verticalAlign=middle;resizable=0;points=[];fontColor=#393C56;labelBackgroundColor=#F4F1DE;" vertex="1" connectable="0" parent="7BwOglaPhLkEs5phlPPn-5">
                    <mxGeometry x="-0.8" y="3" relative="1" as="geometry">
                        <mxPoint as="offset"/>
                    </mxGeometry>
                </mxCell>
                <mxCell id="7BwOglaPhLkEs5phlPPn-9" style="edgeStyle=orthogonalEdgeStyle;curved=0;rounded=1;sketch=0;orthogonalLoop=1;jettySize=auto;html=1;exitX=1;exitY=0.5;exitDx=0;exitDy=0;entryX=0;entryY=0.5;entryDx=0;entryDy=0;fontColor=#393C56;strokeColor=#E07A5F;fillColor=#F2CC8F;labelBackgroundColor=#F4F1DE;" edge="1" parent="hs8LZ54rp-vN_v10k3aM-1" source="7BwOglaPhLkEs5phlPPn-0" target="7BwOglaPhLkEs5phlPPn-8">
                    <mxGeometry relative="1" as="geometry"/>
                </mxCell>
                <mxCell id="7BwOglaPhLkEs5phlPPn-10" value="2" style="edgeLabel;html=1;align=center;verticalAlign=middle;resizable=0;points=[];fontColor=#393C56;labelBackgroundColor=#F4F1DE;" vertex="1" connectable="0" parent="7BwOglaPhLkEs5phlPPn-9">
                    <mxGeometry x="-0.8286" y="1" relative="1" as="geometry">
                        <mxPoint x="-18" y="-9" as="offset"/>
                    </mxGeometry>
                </mxCell>
                <mxCell id="7BwOglaPhLkEs5phlPPn-11" value="{Fee_30_SmallSector_RdMgmt_FinishJob(MEMIF_JOB_FAILED);}" style="edgeLabel;html=1;align=center;verticalAlign=middle;resizable=0;points=[];fontColor=#393C56;labelBackgroundColor=#F4F1DE;" vertex="1" connectable="0" parent="7BwOglaPhLkEs5phlPPn-9">
                    <mxGeometry x="-0.3" y="1" relative="1" as="geometry">
                        <mxPoint x="75" y="-9" as="offset"/>
                    </mxGeometry>
                </mxCell>
                <mxCell id="7BwOglaPhLkEs5phlPPn-0" value="RDMGMT_STATE_IDLE&lt;br&gt;en:&lt;br&gt;&lt;div&gt;Fee_30_SmallSector_Ih_SetWP1State(Fee_30_SmallSector_RdMgmt_Instance, FEE_30_SMALLSECTOR_PATTERN_INIT);&lt;/div&gt;&lt;div&gt;Fee_30_SmallSector_Ih_SetWP2State(Fee_30_SmallSector_RdMgmt_Instance, FEE_30_SMALLSECTOR_PATTERN_INIT);&lt;/div&gt;" style="html=1;align=left;verticalAlign=top;rounded=1;absoluteArcSize=1;arcSize=10;dashed=0;sketch=0;fontColor=#393C56;strokeColor=#E07A5F;fillColor=#F2CC8F;" vertex="1" parent="hs8LZ54rp-vN_v10k3aM-1">
                    <mxGeometry x="260" y="290" width="740" height="80" as="geometry"/>
                </mxCell>
                <mxCell id="7BwOglaPhLkEs5phlPPn-17" style="edgeStyle=orthogonalEdgeStyle;curved=0;rounded=1;sketch=0;orthogonalLoop=1;jettySize=auto;html=1;exitX=0.5;exitY=1;exitDx=0;exitDy=0;entryX=0.5;entryY=0;entryDx=0;entryDy=0;fontColor=#393C56;strokeColor=#E07A5F;fillColor=#F2CC8F;labelBackgroundColor=#F4F1DE;" edge="1" parent="hs8LZ54rp-vN_v10k3aM-1" source="7BwOglaPhLkEs5phlPPn-2" target="7BwOglaPhLkEs5phlPPn-16">
                    <mxGeometry relative="1" as="geometry"/>
                </mxCell>
                <mxCell id="7BwOglaPhLkEs5phlPPn-18" value="2" style="edgeLabel;html=1;align=center;verticalAlign=middle;resizable=0;points=[];fontColor=#393C56;labelBackgroundColor=#F4F1DE;" vertex="1" connectable="0" parent="7BwOglaPhLkEs5phlPPn-17">
                    <mxGeometry x="-0.219" relative="1" as="geometry">
                        <mxPoint x="-10" y="-10" as="offset"/>
                    </mxGeometry>
                </mxCell>
                <mxCell id="7BwOglaPhLkEs5phlPPn-2" value="RDMGMT_STATE_WAIT_FOR_READ_ALL" style="html=1;align=center;verticalAlign=middle;rounded=1;absoluteArcSize=1;arcSize=10;dashed=0;sketch=0;fontColor=#393C56;strokeColor=#E07A5F;fillColor=#F2CC8F;" vertex="1" parent="hs8LZ54rp-vN_v10k3aM-1">
                    <mxGeometry x="475" y="560" width="310" height="40" as="geometry"/>
                </mxCell>
                <mxCell id="7BwOglaPhLkEs5phlPPn-3" value="" style="ellipse;html=1;shape=startState;fillColor=#F2CC8F;strokeColor=#E07A5F;rounded=0;sketch=0;fontColor=#393C56;align=center;verticalAlign=middle;" vertex="1" parent="hs8LZ54rp-vN_v10k3aM-1">
                    <mxGeometry x="160" y="315" width="30" height="30" as="geometry"/>
                </mxCell>
                <mxCell id="7BwOglaPhLkEs5phlPPn-4" value="" style="edgeStyle=orthogonalEdgeStyle;html=1;verticalAlign=bottom;endArrow=open;endSize=8;strokeColor=#E07A5F;fontColor=#393C56;fillColor=#F2CC8F;entryX=0;entryY=0.5;entryDx=0;entryDy=0;labelBackgroundColor=#F4F1DE;" edge="1" source="7BwOglaPhLkEs5phlPPn-3" parent="hs8LZ54rp-vN_v10k3aM-1" target="7BwOglaPhLkEs5phlPPn-0">
                    <mxGeometry relative="1" as="geometry">
                        <mxPoint x="175" y="390" as="targetPoint"/>
                    </mxGeometry>
                </mxCell>
                <mxCell id="7BwOglaPhLkEs5phlPPn-8" value="" style="ellipse;html=1;shape=endState;fillColor=#F2CC8F;strokeColor=#E07A5F;rounded=0;sketch=0;fontColor=#393C56;" vertex="1" parent="hs8LZ54rp-vN_v10k3aM-1">
                    <mxGeometry x="1410" y="315" width="30" height="30" as="geometry"/>
                </mxCell>
                <mxCell id="7BwOglaPhLkEs5phlPPn-13" style="edgeStyle=orthogonalEdgeStyle;curved=0;rounded=1;sketch=0;orthogonalLoop=1;jettySize=auto;html=1;exitX=0;exitY=0.5;exitDx=0;exitDy=0;fontColor=#393C56;strokeColor=#E07A5F;fillColor=#F2CC8F;entryX=0.25;entryY=0;entryDx=0;entryDy=0;labelBackgroundColor=#F4F1DE;" edge="1" parent="hs8LZ54rp-vN_v10k3aM-1" source="7BwOglaPhLkEs5phlPPn-2" target="7BwOglaPhLkEs5phlPPn-2">
                    <mxGeometry relative="1" as="geometry">
                        <mxPoint x="475" y="520" as="targetPoint"/>
                        <Array as="points">
                            <mxPoint x="400" y="580"/>
                            <mxPoint x="400" y="540"/>
                            <mxPoint x="553" y="540"/>
                        </Array>
                    </mxGeometry>
                </mxCell>
                <mxCell id="7BwOglaPhLkEs5phlPPn-14" value="&lt;div&gt;[Fee_30_SmallSector_Fls_GetJobResult() == MEMIF_JOB_OK]/&amp;nbsp; &amp;nbsp;&amp;nbsp;&lt;/div&gt;&lt;div&gt;{Fee_30_SmallSector_Ih_SetWP1State(Fee_30_SmallSector_RdMgmt_Instance, Fee_30_SmallSector_Ih_GetStartPatternFromBuffer(Fee_30_SmallSector_RdMgmt_Instance));...&lt;/div&gt;&lt;div&gt;&amp;nbsp; &amp;nbsp; Fee_30_SmallSector_Ih_SetWP2State(Fee_30_SmallSector_RdMgmt_Instance, Fee_30_SmallSector_Ih_GetEndPatternFromBuffer(Fee_30_SmallSector_RdMgmt_Instance)); ...&lt;/div&gt;&lt;div&gt;&amp;nbsp; &amp;nbsp; Fee_30_SmallSector_Ih_StoreMgmtValueFromBuffer(Fee_30_SmallSector_RdMgmt_Instance);}&lt;/div&gt;" style="edgeLabel;html=1;align=left;verticalAlign=middle;resizable=0;points=[];fontColor=#393C56;labelBackgroundColor=#F4F1DE;" vertex="1" connectable="0" parent="7BwOglaPhLkEs5phlPPn-13">
                    <mxGeometry x="0.0226" y="-2" relative="1" as="geometry">
                        <mxPoint x="-62" y="-32" as="offset"/>
                    </mxGeometry>
                </mxCell>
                <mxCell id="7BwOglaPhLkEs5phlPPn-15" value="1" style="edgeLabel;html=1;align=center;verticalAlign=middle;resizable=0;points=[];fontColor=#393C56;labelBackgroundColor=#F4F1DE;" vertex="1" connectable="0" parent="7BwOglaPhLkEs5phlPPn-13">
                    <mxGeometry x="-0.9096" y="-1" relative="1" as="geometry">
                        <mxPoint y="-9" as="offset"/>
                    </mxGeometry>
                </mxCell>
                <mxCell id="7BwOglaPhLkEs5phlPPn-16" value="" style="ellipse;html=1;shape=endState;fillColor=#F2CC8F;strokeColor=#E07A5F;rounded=0;sketch=0;fontColor=#393C56;align=left;" vertex="1" parent="hs8LZ54rp-vN_v10k3aM-1">
                    <mxGeometry x="615" y="650" width="30" height="30" as="geometry"/>
                </mxCell>
            </root>
        </mxGraphModel>
    </diagram>
    <diagram id="rtJ9CBNyhyNeuitvQMhh" name="Page-5">
        <mxGraphModel dx="1552" dy="798" grid="1" gridSize="10" guides="1" tooltips="1" connect="1" arrows="1" fold="1" page="1" pageScale="1" pageWidth="850" pageHeight="1400" math="0" shadow="0">
            <root>
                <mxCell id="2FiluHD9KxCoQjdZ7pBG-0"/>
                <mxCell id="2FiluHD9KxCoQjdZ7pBG-1" parent="2FiluHD9KxCoQjdZ7pBG-0"/>
                <mxCell id="2FiluHD9KxCoQjdZ7pBG-2" value="Instance[0]" style="html=1;rounded=0;sketch=0;fontColor=#393C56;strokeColor=#E07A5F;fillColor=#F2CC8F;" parent="2FiluHD9KxCoQjdZ7pBG-1" vertex="1">
                    <mxGeometry x="370" y="280" width="110" height="50" as="geometry"/>
                </mxCell>
                <mxCell id="2FiluHD9KxCoQjdZ7pBG-3" value="Instance[1]" style="html=1;rounded=0;sketch=0;fontColor=#393C56;strokeColor=#E07A5F;fillColor=#F2CC8F;" parent="2FiluHD9KxCoQjdZ7pBG-1" vertex="1">
                    <mxGeometry x="370" y="330" width="110" height="50" as="geometry"/>
                </mxCell>
                <mxCell id="2FiluHD9KxCoQjdZ7pBG-4" value="Instance[n]" style="html=1;rounded=0;sketch=0;fontColor=#393C56;strokeColor=#E07A5F;fillColor=#F2CC8F;" parent="2FiluHD9KxCoQjdZ7pBG-1" vertex="1">
                    <mxGeometry x="370" y="410" width="110" height="50" as="geometry"/>
                </mxCell>
                <mxCell id="2FiluHD9KxCoQjdZ7pBG-5" value="" style="html=1;rounded=0;sketch=0;fontColor=#393C56;strokeColor=#E07A5F;fillColor=none;" parent="2FiluHD9KxCoQjdZ7pBG-1" vertex="1">
                    <mxGeometry x="328" y="260" width="195" height="230" as="geometry"/>
                </mxCell>
            </root>
        </mxGraphModel>
    </diagram>
    <diagram id="J0x2U42XtuU8cZR575Kj" name="Page-6">
        <mxGraphModel grid="1" gridSize="10" guides="1" tooltips="1" connect="1" arrows="1" page="1" fold="1" pageScale="1" pageWidth="850" pageHeight="1400" math="0" shadow="0">
            <root>
                <mxCell id="13bhKkFyNhGw1A5_pVsn-0"/>
                <mxCell id="13bhKkFyNhGw1A5_pVsn-1" parent="13bhKkFyNhGw1A5_pVsn-0"/>
                <mxCell id="13bhKkFyNhGw1A5_pVsn-6" style="edgeStyle=orthogonalEdgeStyle;curved=0;rounded=1;sketch=0;orthogonalLoop=1;jettySize=auto;html=1;exitX=1;exitY=0.5;exitDx=0;exitDy=0;entryX=0.5;entryY=1;entryDx=0;entryDy=0;fontColor=#393C56;strokeColor=#E07A5F;fillColor=#F2CC8F;" parent="13bhKkFyNhGw1A5_pVsn-1" source="13bhKkFyNhGw1A5_pVsn-2" target="13bhKkFyNhGw1A5_pVsn-4" edge="1">
                    <mxGeometry relative="1" as="geometry"/>
                </mxCell>
                <mxCell id="13bhKkFyNhGw1A5_pVsn-2" value="Radio Cfg binary 30 files" style="html=1;rounded=0;sketch=0;fontColor=#393C56;strokeColor=#E07A5F;fillColor=none;" parent="13bhKkFyNhGw1A5_pVsn-1" vertex="1">
                    <mxGeometry x="80" y="220" width="110" height="50" as="geometry"/>
                </mxCell>
                <mxCell id="13bhKkFyNhGw1A5_pVsn-5" style="edgeStyle=orthogonalEdgeStyle;curved=0;rounded=1;sketch=0;orthogonalLoop=1;jettySize=auto;html=1;exitX=1;exitY=0.5;exitDx=0;exitDy=0;entryX=0.5;entryY=0;entryDx=0;entryDy=0;fontColor=#393C56;strokeColor=#E07A5F;fillColor=#F2CC8F;" parent="13bhKkFyNhGw1A5_pVsn-1" source="13bhKkFyNhGw1A5_pVsn-3" target="13bhKkFyNhGw1A5_pVsn-4" edge="1">
                    <mxGeometry relative="1" as="geometry"/>
                </mxCell>
                <mxCell id="13bhKkFyNhGw1A5_pVsn-3" value="Source code of Hub" style="html=1;rounded=0;sketch=0;fontColor=#393C56;strokeColor=#E07A5F;fillColor=none;" parent="13bhKkFyNhGw1A5_pVsn-1" vertex="1">
                    <mxGeometry x="80" y="100" width="110" height="50" as="geometry"/>
                </mxCell>
                <mxCell id="13bhKkFyNhGw1A5_pVsn-7" style="edgeStyle=orthogonalEdgeStyle;curved=0;rounded=1;sketch=0;orthogonalLoop=1;jettySize=auto;html=1;exitX=1;exitY=0.5;exitDx=0;exitDy=0;fontColor=#393C56;strokeColor=#E07A5F;fillColor=#F2CC8F;" parent="13bhKkFyNhGw1A5_pVsn-1" source="13bhKkFyNhGw1A5_pVsn-4" edge="1">
                    <mxGeometry relative="1" as="geometry">
                        <mxPoint x="440" y="185" as="targetPoint"/>
                    </mxGeometry>
                </mxCell>
                <mxCell id="13bhKkFyNhGw1A5_pVsn-4" value="IAR&amp;nbsp; Building" style="html=1;rounded=0;sketch=0;fontColor=#393C56;strokeColor=#E07A5F;fillColor=none;" parent="13bhKkFyNhGw1A5_pVsn-1" vertex="1">
                    <mxGeometry x="270" y="160" width="110" height="50" as="geometry"/>
                </mxCell>
                <mxCell id="13bhKkFyNhGw1A5_pVsn-10" style="edgeStyle=orthogonalEdgeStyle;curved=0;rounded=1;sketch=0;orthogonalLoop=1;jettySize=auto;html=1;exitX=1;exitY=0.5;exitDx=0;exitDy=0;entryX=0;entryY=0.5;entryDx=0;entryDy=0;fontColor=#393C56;strokeColor=#E07A5F;fillColor=#F2CC8F;" parent="13bhKkFyNhGw1A5_pVsn-1" source="13bhKkFyNhGw1A5_pVsn-8" target="13bhKkFyNhGw1A5_pVsn-9" edge="1">
                    <mxGeometry relative="1" as="geometry"/>
                </mxCell>
                <mxCell id="13bhKkFyNhGw1A5_pVsn-8" value="Hub binary" style="html=1;rounded=0;sketch=0;fontColor=#393C56;strokeColor=#E07A5F;fillColor=none;" parent="13bhKkFyNhGw1A5_pVsn-1" vertex="1">
                    <mxGeometry x="440" y="160" width="110" height="50" as="geometry"/>
                </mxCell>
                <mxCell id="13bhKkFyNhGw1A5_pVsn-9" value="type command in shell&lt;br&gt;:RadioCfg" style="html=1;rounded=0;sketch=0;fontColor=#393C56;strokeColor=#E07A5F;fillColor=none;" parent="13bhKkFyNhGw1A5_pVsn-1" vertex="1">
                    <mxGeometry x="680" y="155" width="140" height="60" as="geometry"/>
                </mxCell>
                <mxCell id="13bhKkFyNhGw1A5_pVsn-13" style="edgeStyle=orthogonalEdgeStyle;curved=0;rounded=1;sketch=0;orthogonalLoop=1;jettySize=auto;html=1;exitX=1;exitY=1;exitDx=0;exitDy=0;entryX=0.5;entryY=0;entryDx=0;entryDy=0;fontColor=#393C56;strokeColor=#E07A5F;fillColor=#F2CC8F;" parent="13bhKkFyNhGw1A5_pVsn-1" source="13bhKkFyNhGw1A5_pVsn-11" target="13bhKkFyNhGw1A5_pVsn-12" edge="1">
                    <mxGeometry relative="1" as="geometry"/>
                </mxCell>
                <mxCell id="13bhKkFyNhGw1A5_pVsn-14" value="netcat&amp;nbsp; ip port &amp;lt; srec" style="edgeLabel;html=1;align=center;verticalAlign=middle;resizable=0;points=[];fontColor=#393C56;" parent="13bhKkFyNhGw1A5_pVsn-13" vertex="1" connectable="0">
                    <mxGeometry x="-0.1714" y="4" relative="1" as="geometry">
                        <mxPoint as="offset"/>
                    </mxGeometry>
                </mxCell>
                <mxCell id="13bhKkFyNhGw1A5_pVsn-11" value="Rasp pi to slow down the speed to file&lt;br&gt;SPI_demux" style="html=1;rounded=0;sketch=0;fontColor=#393C56;strokeColor=#E07A5F;fillColor=none;" parent="13bhKkFyNhGw1A5_pVsn-1" vertex="1">
                    <mxGeometry y="-200" width="200" height="50" as="geometry"/>
                </mxCell>
                <mxCell id="13bhKkFyNhGw1A5_pVsn-12" value="(1) Hub store the binary to Flash/ROM, speed of flashing the flash in hub side&lt;br&gt;(2) Integrate the NVM function save parameter&lt;br&gt;5 days" style="html=1;rounded=0;sketch=0;fontColor=#393C56;strokeColor=#E07A5F;fillColor=none;align=left;" parent="13bhKkFyNhGw1A5_pVsn-1" vertex="1">
                    <mxGeometry x="315" y="-40" width="485" height="150" as="geometry"/>
                </mxCell>
                <mxCell id="13bhKkFyNhGw1A5_pVsn-15" style="edgeStyle=orthogonalEdgeStyle;curved=0;rounded=1;sketch=0;orthogonalLoop=1;jettySize=auto;html=1;exitX=1;exitY=1;exitDx=0;exitDy=0;entryX=0.5;entryY=0;entryDx=0;entryDy=0;fontColor=#393C56;strokeColor=#E07A5F;fillColor=#F2CC8F;" parent="13bhKkFyNhGw1A5_pVsn-1" source="13bhKkFyNhGw1A5_pVsn-17" target="13bhKkFyNhGw1A5_pVsn-18" edge="1">
                    <mxGeometry relative="1" as="geometry"/>
                </mxCell>
                <mxCell id="13bhKkFyNhGw1A5_pVsn-16" value="netcat&amp;nbsp; ip port &amp;lt; srec" style="edgeLabel;html=1;align=center;verticalAlign=middle;resizable=0;points=[];fontColor=#393C56;" parent="13bhKkFyNhGw1A5_pVsn-15" vertex="1" connectable="0">
                    <mxGeometry x="-0.1714" y="4" relative="1" as="geometry">
                        <mxPoint as="offset"/>
                    </mxGeometry>
                </mxCell>
                <mxCell id="13bhKkFyNhGw1A5_pVsn-17" value="Anchor Binary" style="html=1;rounded=0;sketch=0;fontColor=#393C56;strokeColor=#E07A5F;fillColor=none;" parent="13bhKkFyNhGw1A5_pVsn-1" vertex="1">
                    <mxGeometry x="130" y="-410" width="110" height="50" as="geometry"/>
                </mxCell>
                <mxCell id="13bhKkFyNhGw1A5_pVsn-18" value="Hub store the binary to RAM" style="html=1;rounded=0;sketch=0;fontColor=#393C56;strokeColor=#E07A5F;fillColor=none;" parent="13bhKkFyNhGw1A5_pVsn-1" vertex="1">
                    <mxGeometry x="355" y="-250" width="185" height="50" as="geometry"/>
                </mxCell>
                <mxCell id="13bhKkFyNhGw1A5_pVsn-19" value="packet1" style="html=1;rounded=0;sketch=0;fontColor=#393C56;strokeColor=#E07A5F;fillColor=none;" parent="13bhKkFyNhGw1A5_pVsn-1" vertex="1">
                    <mxGeometry x="342.5" y="-170" width="65" height="50" as="geometry"/>
                </mxCell>
                <mxCell id="13bhKkFyNhGw1A5_pVsn-20" value="packet2" style="html=1;rounded=0;sketch=0;fontColor=#393C56;strokeColor=#E07A5F;fillColor=none;" parent="13bhKkFyNhGw1A5_pVsn-1" vertex="1">
                    <mxGeometry x="242.5" y="-170" width="65" height="50" as="geometry"/>
                </mxCell>
                <mxCell id="13bhKkFyNhGw1A5_pVsn-21" value="1" style="text;html=1;align=center;verticalAlign=middle;resizable=0;points=[];autosize=1;strokeColor=none;fontColor=#393C56;" parent="13bhKkFyNhGw1A5_pVsn-1" vertex="1">
                    <mxGeometry x="490" y="-400" width="20" height="20" as="geometry"/>
                </mxCell>
                <mxCell id="13bhKkFyNhGw1A5_pVsn-22" value="2" style="text;html=1;align=center;verticalAlign=middle;resizable=0;points=[];autosize=1;strokeColor=none;fontColor=#393C56;" parent="13bhKkFyNhGw1A5_pVsn-1" vertex="1">
                    <mxGeometry x="600" y="-150" width="20" height="20" as="geometry"/>
                </mxCell>
                <mxCell id="13bhKkFyNhGw1A5_pVsn-23" value="3" style="text;html=1;align=center;verticalAlign=middle;resizable=0;points=[];autosize=1;strokeColor=none;fontColor=#393C56;" parent="13bhKkFyNhGw1A5_pVsn-1" vertex="1">
                    <mxGeometry x="640" y="120" width="20" height="20" as="geometry"/>
                </mxCell>
                <mxCell id="13bhKkFyNhGw1A5_pVsn-24" style="edgeStyle=orthogonalEdgeStyle;curved=0;rounded=1;sketch=0;orthogonalLoop=1;jettySize=auto;html=1;exitX=1;exitY=0.5;exitDx=0;exitDy=0;entryX=0.5;entryY=1;entryDx=0;entryDy=0;fontColor=#393C56;strokeColor=#E07A5F;fillColor=#F2CC8F;" parent="13bhKkFyNhGw1A5_pVsn-1" source="13bhKkFyNhGw1A5_pVsn-25" target="13bhKkFyNhGw1A5_pVsn-29" edge="1">
                    <mxGeometry relative="1" as="geometry"/>
                </mxCell>
                <mxCell id="13bhKkFyNhGw1A5_pVsn-25" value="binary" style="html=1;rounded=0;sketch=0;fontColor=#393C56;strokeColor=#E07A5F;fillColor=none;" parent="13bhKkFyNhGw1A5_pVsn-1" vertex="1">
                    <mxGeometry x="77.5" y="460" width="110" height="50" as="geometry"/>
                </mxCell>
                <mxCell id="13bhKkFyNhGw1A5_pVsn-26" style="edgeStyle=orthogonalEdgeStyle;curved=0;rounded=1;sketch=0;orthogonalLoop=1;jettySize=auto;html=1;exitX=1;exitY=0.5;exitDx=0;exitDy=0;entryX=0.5;entryY=0;entryDx=0;entryDy=0;fontColor=#393C56;strokeColor=#E07A5F;fillColor=#F2CC8F;" parent="13bhKkFyNhGw1A5_pVsn-1" source="13bhKkFyNhGw1A5_pVsn-27" target="13bhKkFyNhGw1A5_pVsn-29" edge="1">
                    <mxGeometry relative="1" as="geometry"/>
                </mxCell>
                <mxCell id="13bhKkFyNhGw1A5_pVsn-27" value="Hub binary" style="html=1;rounded=0;sketch=0;fontColor=#393C56;strokeColor=#E07A5F;fillColor=none;" parent="13bhKkFyNhGw1A5_pVsn-1" vertex="1">
                    <mxGeometry x="77.5" y="340" width="110" height="50" as="geometry"/>
                </mxCell>
                <mxCell id="13bhKkFyNhGw1A5_pVsn-28" style="edgeStyle=orthogonalEdgeStyle;curved=0;rounded=1;sketch=0;orthogonalLoop=1;jettySize=auto;html=1;exitX=1;exitY=0.5;exitDx=0;exitDy=0;fontColor=#393C56;strokeColor=#E07A5F;fillColor=#F2CC8F;" parent="13bhKkFyNhGw1A5_pVsn-1" source="13bhKkFyNhGw1A5_pVsn-29" edge="1">
                    <mxGeometry relative="1" as="geometry">
                        <mxPoint x="437.5" y="425" as="targetPoint"/>
                    </mxGeometry>
                </mxCell>
                <mxCell id="13bhKkFyNhGw1A5_pVsn-29" value="Script" style="html=1;rounded=0;sketch=0;fontColor=#393C56;strokeColor=#E07A5F;fillColor=none;" parent="13bhKkFyNhGw1A5_pVsn-1" vertex="1">
                    <mxGeometry x="267.5" y="400" width="110" height="50" as="geometry"/>
                </mxCell>
                <mxCell id="13bhKkFyNhGw1A5_pVsn-30" style="edgeStyle=orthogonalEdgeStyle;curved=0;rounded=1;sketch=0;orthogonalLoop=1;jettySize=auto;html=1;exitX=1;exitY=0.5;exitDx=0;exitDy=0;entryX=0;entryY=0.5;entryDx=0;entryDy=0;fontColor=#393C56;strokeColor=#E07A5F;fillColor=#F2CC8F;" parent="13bhKkFyNhGw1A5_pVsn-1" source="13bhKkFyNhGw1A5_pVsn-31" target="13bhKkFyNhGw1A5_pVsn-32" edge="1">
                    <mxGeometry relative="1" as="geometry"/>
                </mxCell>
                <mxCell id="13bhKkFyNhGw1A5_pVsn-35" style="edgeStyle=orthogonalEdgeStyle;curved=0;rounded=1;sketch=0;orthogonalLoop=1;jettySize=auto;html=1;exitX=0.75;exitY=1;exitDx=0;exitDy=0;entryX=0.5;entryY=0;entryDx=0;entryDy=0;fontColor=#393C56;strokeColor=#E07A5F;fillColor=#F2CC8F;" parent="13bhKkFyNhGw1A5_pVsn-1" source="13bhKkFyNhGw1A5_pVsn-31" target="13bhKkFyNhGw1A5_pVsn-34" edge="1">
                    <mxGeometry relative="1" as="geometry"/>
                </mxCell>
                <mxCell id="13bhKkFyNhGw1A5_pVsn-36" value="CAN" style="edgeLabel;html=1;align=center;verticalAlign=middle;resizable=0;points=[];fontColor=#393C56;" parent="13bhKkFyNhGw1A5_pVsn-35" vertex="1" connectable="0">
                    <mxGeometry x="-0.0756" y="4" relative="1" as="geometry">
                        <mxPoint x="16" y="-99" as="offset"/>
                    </mxGeometry>
                </mxCell>
                <mxCell id="13bhKkFyNhGw1A5_pVsn-31" value="Hub binary + ..." style="html=1;rounded=0;sketch=0;fontColor=#393C56;strokeColor=#E07A5F;fillColor=none;" parent="13bhKkFyNhGw1A5_pVsn-1" vertex="1">
                    <mxGeometry x="437.5" y="400" width="110" height="50" as="geometry"/>
                </mxCell>
                <mxCell id="13bhKkFyNhGw1A5_pVsn-32" value="type command in shell&lt;br&gt;:RadioCfg" style="html=1;rounded=0;sketch=0;fontColor=#393C56;strokeColor=#E07A5F;fillColor=none;" parent="13bhKkFyNhGw1A5_pVsn-1" vertex="1">
                    <mxGeometry x="677.5" y="395" width="140" height="60" as="geometry"/>
                </mxCell>
                <mxCell id="13bhKkFyNhGw1A5_pVsn-33" value="4" style="text;html=1;align=center;verticalAlign=middle;resizable=0;points=[];autosize=1;strokeColor=none;fontColor=#393C56;" parent="13bhKkFyNhGw1A5_pVsn-1" vertex="1">
                    <mxGeometry x="637.5" y="360" width="20" height="20" as="geometry"/>
                </mxCell>
                <mxCell id="13bhKkFyNhGw1A5_pVsn-34" value="Anchor" style="html=1;rounded=0;sketch=0;fontColor=#393C56;strokeColor=#E07A5F;fillColor=none;" parent="13bhKkFyNhGw1A5_pVsn-1" vertex="1">
                    <mxGeometry x="465" y="750" width="110" height="50" as="geometry"/>
                </mxCell>
                <mxCell id="13bhKkFyNhGw1A5_pVsn-37" value="2-3 days&amp;nbsp; not exceed 3 days" style="text;html=1;align=center;verticalAlign=middle;resizable=0;points=[];autosize=1;strokeColor=none;fontColor=#393C56;" parent="13bhKkFyNhGw1A5_pVsn-1" vertex="1">
                    <mxGeometry x="185" y="520" width="170" height="20" as="geometry"/>
                </mxCell>
            </root>
        </mxGraphModel>
    </diagram>
</mxfile>